<svg xmlns="http://www.w3.org/2000/svg" enable-background="new 0 0 3000 3000" viewBox="0 0 3000 3000" id="confidential-documents-security"><g><linearGradient id="a" x1="629.416" x2="1619.123" y1="539.578" y2="3454.576" gradientUnits="userSpaceOnUse"><stop offset=".008" stop-color="#182b9b"></stop><stop offset="1" stop-color="#21032b"></stop></linearGradient><path fill="url(#a)" d="M419.25 1246.93c150.78 135.31 777.08-328.61 726.82-568.31-50.26-239.69-988.08 333.85-726.82 568.31z"></path><path fill="#21032b" d="M1146.07 678.63c-21.87-104.29-211.77-54.6-397.82 54.11-.49 42.07 4.43 85.2 25.02 122.37 5.58 10.08 12.48 19.18 19.52 28.25 5.12 6.6 10.76 13.43 13.94 21.24 7.4 18.2-6.72 30.27-21.74 37.96-3.96 2.03-8.05 3.74-12.51 4.25-2.66.3-5.49-.27-8.1.13-8.79 1.33-9.72 13.43-9.29 20.34 1.24 19.85 9.47 38.91 12.73 58.5 6.01 36.11 1.27 72.32-24.37 99.95-23.75 25.58-58.33 41.99-90.98 53.08-33.11 11.24-67.78 17.37-102.64 19.58-57.81 3.66-117.04-2.68-172.73-19.66 5.95 24.79 19.42 47.81 42.16 68.22 150.77 135.3 777.07-328.63 726.81-568.32z" opacity=".35"></path><linearGradient id="b" x1="1090.2" x2="2079.91" y1="383.132" y2="3298.139" gradientUnits="userSpaceOnUse"><stop offset=".008" stop-color="#182b9b"></stop><stop offset="1" stop-color="#21032b"></stop></linearGradient><path fill="url(#b)" d="M1579.66 365.06c-545.4 237.71-172.77 595.02-985.74 967.56-641.7 294.04-350.86 1278.95 570.13 1387.88 652.05 77.09 1273.1-254.5 1512.72-885.43C2976.62 1045.5 2315.53 44.32 1579.66 365.06z"></path><path fill="#21032b" d="M2581.84 1592.49c-156.12-54.31-114.88-281.12-419.01-520.81-7.54 25.15 61.92 217.91 60.21 244.09-3.91 59.62 1.4 119.37-1.06 179.03-2.28 55.3-12.22 111.15-29.72 163.68-34.24 102.81-99.78 194.18-187.21 258.29-170.24 124.85-396.96 143.89-589.43 60.51-49.18-21.31-93.51-49.37-136.88-80.63-33.83-24.38-74.72-55.87-116.84-31.19-24.54 14.37-43.02 39.09-60.61 60.92-15.04 18.66-29.23 37.99-43.28 57.41-26.68 36.86-52.96 74.47-85.52 106.5-33.21 32.68-72.77 57.32-117.2 71.57-48.37 15.51-100.37 23.47-150.83 28.34-98.28 9.48-200.56 2.46-292.83-34.83-45.49-18.38-87.91-44.19-124.3-77.17-.22-.2-.43-.42-.65-.62 101.6 303.61 407.36 587.34 877.36 642.93 652.05 77.09 1273.1-254.5 1512.72-885.43 37.21-97.97 59.58-199.19 68.89-300.75-41.62 53.85-93.64 82.57-163.81 58.16z" opacity=".35"></path><path fill="#f4f2f3" d="M2318.93 563.14c-6.48 31.98 4.75 86.97-32.33 103.23-18.21 7.99-39.42 8.99-58.98 10.06-22.54 1.22-45.19 1.18-67.65 3.55-21.29 2.25-42.25 8.39-62.74 14.41-23.25 6.83-46.18 15.01-68.1 25.39-42.93 20.33-83.11 50.5-100.9 96.04-1.18 3.01-5.45 4.88-8.2 2.56-15.64-13.16-33.73-21.21-54.37-21.26-18.9-.05-37.39 6.05-54.53 13.52-32.15 14-61.99 32.94-92.72 49.69-29.55 16.11-60.19 30.24-91.85 41.68-60.65 21.92-124.03 33.27-187.98 39.97 4.69 5.89 9.56 11.62 14.84 17 32.09 32.71 73.65 54.75 116.27 70.5 48.82 18.04 100.21 28.46 151.69 35.4 100.22 13.51 201.51 13.39 302.43 13.72 59.87.19 119.69 2.23 179.57 1.65 78.12-.75 156.22-4.37 234.01-11.68 84.43-7.93 168.36-20.52 251.34-37.7-63.62-199.1-172.82-377.6-311.82-507.92-1.86.08-3.74.12-5.57.28-12.37 1.07-25.4 3.81-35.94 10.71-9.85 6.44-14.22 18.1-16.47 29.2z" enable-background="new" opacity=".1"></path><g><path fill="#fff" d="M2523.44 1193.87c-7.85 2.65-10 4.8-12.66 12.66-2.65-7.86-4.8-10.01-12.65-12.66 7.85-2.66 10.01-4.8 12.65-12.66 2.65 7.86 4.8 10.01 12.66 12.66zM1406.15 740.48c-7.85 2.65-10.01 4.8-12.66 12.65-2.65-7.85-4.8-10.01-12.66-12.65 7.86-2.65 10.01-4.8 12.66-12.65 2.66 7.85 4.81 10 12.66 12.65zM2265.17 808.79c-10.72 3.62-13.66 6.55-17.27 17.27-3.62-10.72-6.55-13.66-17.28-17.27 10.72-3.62 13.66-6.55 17.28-17.28 3.61 10.72 6.54 13.66 17.27 17.28zM370.8 1699.26c-10.73 3.62-13.66 6.56-17.28 17.28-3.62-10.72-6.55-13.66-17.27-17.28 10.72-3.62 13.66-6.55 17.27-17.27 3.62 10.72 6.56 13.65 17.28 17.27z"></path><path fill="#fff" d="M2006.8 517.04c5.04 0 9.13-4.09 9.13-9.13 0-5.07-4.09-9.16-9.13-9.16-5.04 0-9.13 4.09-9.13 9.16 0 5.04 4.09 9.13 9.13 9.13zM2006.8 564.04c5.04 0 9.13-4.09 9.13-9.13 0-5.07-4.09-9.16-9.13-9.16-5.04 0-9.13 4.09-9.13 9.16 0 5.04 4.09 9.13 9.13 9.13z" opacity=".8"></path><path fill="#fff" d="M2006.8 611.05c5.04 0 9.13-4.09 9.13-9.13 0-5.07-4.09-9.16-9.13-9.16-5.04 0-9.13 4.09-9.13 9.16 0 5.03 4.09 9.13 9.13 9.13z" opacity=".6"></path><path fill="#fff" d="M2006.8 658.05c5.04 0 9.13-4.09 9.13-9.12 0-5.08-4.09-9.16-9.13-9.16-5.04 0-9.13 4.09-9.13 9.16 0 5.03 4.09 9.12 9.13 9.12z" opacity=".3"></path><path fill="#fff" d="M414.65 1843.66c5.04 0 9.13-4.09 9.13-9.13 0-5.07-4.09-9.16-9.13-9.16-5.04 0-9.13 4.09-9.13 9.16 0 5.04 4.09 9.13 9.13 9.13zM414.65 1890.66c5.04 0 9.13-4.09 9.13-9.13 0-5.07-4.09-9.16-9.13-9.16-5.04 0-9.13 4.09-9.13 9.16 0 5.05 4.09 9.13 9.13 9.13z" opacity=".8"></path><path fill="#fff" d="M414.65 1937.67c5.04 0 9.13-4.09 9.13-9.13 0-5.07-4.09-9.16-9.13-9.16-5.04 0-9.13 4.09-9.13 9.16 0 5.04 4.09 9.13 9.13 9.13z" opacity=".6"></path><path fill="#fff" d="M414.65 1984.67c5.04 0 9.13-4.09 9.13-9.12 0-5.08-4.09-9.16-9.13-9.16-5.04 0-9.13 4.09-9.13 9.16 0 5.03 4.09 9.12 9.13 9.12z" opacity=".3"></path><path fill="#fff" d="M2549.44 1671.59c5.04 0 9.12-4.09 9.12-9.13 0-5.07-4.09-9.16-9.12-9.16-5.04 0-9.13 4.09-9.13 9.16.01 5.04 4.09 9.13 9.13 9.13zM2549.44 1718.59c5.04 0 9.12-4.09 9.12-9.13 0-5.07-4.09-9.16-9.12-9.16-5.04 0-9.13 4.09-9.13 9.16.01 5.05 4.09 9.13 9.13 9.13z" opacity=".8"></path><path fill="#fff" d="M2549.44 1765.6c5.04 0 9.12-4.09 9.12-9.13 0-5.07-4.09-9.17-9.12-9.17-5.04 0-9.13 4.09-9.13 9.17.01 5.04 4.09 9.13 9.13 9.13z" opacity=".6"></path><path fill="#fff" d="M2549.44 1812.6c5.04 0 9.12-4.09 9.12-9.12 0-5.07-4.09-9.16-9.12-9.16-5.04 0-9.13 4.09-9.13 9.16.01 5.03 4.09 9.12 9.13 9.12z" opacity=".3"></path></g></g><g><linearGradient id="c" x1="798.737" x2="1403.033" y1="333.069" y2="1161.936" gradientUnits="userSpaceOnUse"><stop offset=".02" stop-color="#d1e1ee"></stop><stop offset=".363" stop-color="#50a7e2"></stop><stop offset="1" stop-color="#182b9b"></stop></linearGradient><path fill="url(#c)" d="M1044.45 1074.12c0 .09-.09.09-.09.09-.09 0-.09 0-.17-.09-285.58-149.15-270.28-517.38-270.28-517.38 167.1-20.71 264.36-120.02 270.29-126.21 0-.09 0-.09.17-.17.09.09.09.09.09.17 5.93 6.19 103.1 105.5 270.2 126.21-.01 0 15.37 368.23-270.21 517.38z"></path><linearGradient id="d" x1="646.232" x2="1442.203" y1="-47.133" y2="1357.925" gradientUnits="userSpaceOnUse"><stop offset=".02" stop-color="#d1e1ee"></stop><stop offset=".363" stop-color="#50a7e2"></stop><stop offset="1" stop-color="#182b9b"></stop></linearGradient><path fill="url(#d)" d="M1044.32 1054.7C810.66 926.58 792.1 639.03 791.03 571.71c134.21-20.67 221.65-88.86 253.29-117.49 31.63 28.63 119.06 96.82 253.2 117.49-1.04 67.3-19.52 354.86-253.2 482.99z"></path><path fill="#132368" d="M1216.31 552.11c-13.69 42.09-32.76 82.45-57.57 118.78-18.87 27.63-41.35 53.14-67.62 73.95-18.56 14.7-39.72 26.2-61.28 35.84-49.46 22.12-103.18 35.26-156.87 41.69-9.64 1.15-19.33 2.01-29.06 2.73 36.35 85.84 97.5 173.17 200.4 229.6 233.68-128.13 252.16-415.7 253.2-482.99-29.38-4.53-56.39-11.42-81.2-19.6z" opacity=".1"></path><path fill="#fff" fill-rule="evenodd" d="M831.63 697.96c-14.8-19.73-33.51-86.99-6.44-90.21 27.06-3.22 12.24 97.94 6.44 90.21zM827.76 588.42s149.49-69.59 190.08-85.05c40.6-15.47-131.44 135.95-190.08 85.05z" clip-rule="evenodd" opacity=".25"></path><path fill="#d1e1ee" d="m924.69 722.11 50.75-47.14 50.51 57.28 194.1-106.6-194.1 200.47z"></path><linearGradient id="e" x1="1326.447" x2="1524.714" y1="2156.01" y2="2739.969" gradientUnits="userSpaceOnUse"><stop offset="0" stop-color="#871d5c"></stop><stop offset="1" stop-color="#601843"></stop></linearGradient><path fill="url(#e)" d="m1863.88 2352.66-243.07 354.68-23.1 3.9c-140.24 23.21-286.13 26.68-433.64 9.22-42.63-4.99-83.84-11.93-123.65-20.61l86.34-476.05 737.12 128.86z"></path><path fill="#08083a" d="M1269.78 2457.97c-40.59-52.19-171.75-2.32-132.41-8.7 71.52-11.6 32.86 24.16 107.28 110.18 74.42 86.02 142.08 21.26 142.08 21.26-117.92 2.91-76.36-70.54-116.95-122.74z" opacity=".25"></path><path fill="#08083a" d="M1149.05 2414.8c29.27-8.04 60.95-14.24 91.4-10.6 12.98 1.55 26.1 5.15 36.63 13.2 11.71 8.95 19.26 21.86 24.92 35.24 5.86 13.84 10.01 28.35 16.4 41.98 4.67 9.97 9.59 21.21 18.82 27.84 10.01 7.19 23.54 9.94 35.25 12.95 14.53 3.74 29.02 7.3 43.14 12.45 21.86 7.98 43 19.39 58.25 37.36 32.82 38.66 28.13 90.54 38.29 137.42 28.71-3.07 57.28-6.72 85.57-11.4l23.1-3.9 243.07-354.68-737.12-128.86-38.51 212.36c19.73-8.54 40.13-15.68 60.79-21.36z" opacity=".25"></path><g><path fill="#ffafaa" d="M1017.08 1394.28s-266.45 397.19-143.09 525.48c73.25 76.18 157.91 28.96 232.73-74.97 94.73-131.59 154.97-263.02 154.97-263.02l-244.61-187.49zM2283.92 1331.37s287.3 522.73 136.92 608.13c-199.83 113.48-343.82-418.12-343.82-418.12l206.9-190.01z"></path><path fill="#dd8a8a" d="M2327.71 1661.96s-20.36-61.68-48.1-76.49c-.01.01 58.58 24.06 48.1 76.49z"></path><linearGradient id="f" x1="1778.678" x2="1919.707" y1="2207.431" y2="2622.805" gradientUnits="userSpaceOnUse"><stop offset="0" stop-color="#871d5c"></stop><stop offset="1" stop-color="#601843"></stop></linearGradient><path fill="url(#f)" d="M2198.17 2463.95c-176.04 127.23-381.36 211.18-600.46 247.3l-102.39-407.61 641.78-77.33 61.07 237.64z"></path><path fill="#08083a" d="M1665.08 2626.15c-24.86 15.2 4.83-105.35 116.95-101.48 51.93 1.79 191.37 13.53 259.99-42.53 0 0-9.67 71.52-140.14 90.85-130.48 19.33-115.02-21.26-236.8 53.16z" opacity=".25"></path><path fill="#08083a" d="M1642.8 2581.71c23.75-43.44 65.29-74.96 115.02-80.92 14.42-1.73 29.07-1.92 43.24 1.51 8.83 2.14 17.43 5.3 26.45 6.61 9.91 1.44 20.15.53 30.03-.71 36.75-4.62 71.55-18.87 105.83-32.21 30.43-11.84 60.54-24.94 92.34-32.8 26.98-6.68 60.03-11.32 85.58 2.57 13.51 7.34 25.39 19.73 33.94 34.24 7.67-5.31 15.37-10.59 22.93-16.06l-61.07-237.65-641.78 77.33 102.39 407.61c6.68-1.1 13.3-2.39 19.95-3.57-4.02-43.25 4.37-87.93 25.15-125.95z" opacity=".25"></path><linearGradient id="g" x1="1174.878" x2="1820.24" y1="701.519" y2="2690.074" gradientTransform="matrix(-1 0 0 1 3147.45 0)" gradientUnits="userSpaceOnUse"><stop offset="0" stop-color="#ffe245"></stop><stop offset=".526" stop-color="#de007b"></stop><stop offset="1" stop-color="#e38427"></stop></linearGradient><path fill="url(#g)" d="M1450.5 872.49c45.18-31.76 95.87-54.53 152.92-65.72 85.21-16.72 159.42 1.26 224.16 43.95 51.26 11.65 375.72 104.23 557.94 612.38 0 0-123.32 92.24-209.47 114.14 49.25 235.49 136.72 702.56 41.2 758.73-467.7 275.01-1104.32-19.53-1119.28-41.3-17.27-25.15 6.46-560.54 28.38-707.24-93.71-44.43-185.73-140.88-185.73-140.88 156.44-385.33 411-530.42 509.88-574.06z"></path><path fill="#7a1752" d="M2374.37 1433.52c-8.94 9.31-19.95 16.86-32.99 22.07-30.67 12.26-65.43 12.11-97.58 6.76-32.66-5.43-64.97-16.29-93.53-33.17-38.73-22.9-67.85-59.95-90.85-97.9-20.8-34.33-37.1-71.16-51.27-108.7-.93 22.51-4.86 44.66-20.93 62-21.49 23.19-49.29 42.49-77.57 56.37-26.65 13.08-55.64 20.42-84.88 11.92-15.98-4.64-29.43-14.65-45.17-19.57-14.74-4.6-30.29-4.75-45.57-3.97-70.36 3.62-141.09 4.02-210.98-6.25-31.85-4.68-63.98-11.02-94.38-21.81-23.94-8.5-47.32-20.45-65.2-38.84-8.89-9.14-16.18-19.96-21.17-31.7-6.43-15.17-7.77-31.71-7.16-48.05.62-16.46 3.5-32.88 7.39-48.87 2.29-9.41 6.27-20.87 6.15-31.39-12.14 13.17-22.68 27.75-38.48 37.02-16.84 9.88-37.74 16.45-57.15 18.26-18.8 1.75-37.79-1.79-51.92-15.08-21.32-20.05-18.62-50.86-17.17-78.46-85.67 88.45-174.12 211.86-243.36 382.38 0 0 92.03 96.45 185.73 140.88-21.91 146.7-45.65 682.08-28.38 707.24 14.95 21.77 651.58 316.31 1119.28 41.3 95.52-56.17 8.05-523.24-41.2-758.73 86.16-21.9 209.47-114.14 209.47-114.14-3.61-10.1-7.39-19.78-11.13-29.57z" enable-background="new" opacity=".25"></path><path fill="#7a1752" d="M2108.8 1872.38c4.86 8.13 16.82 9.73 25.27 10.69 15.19 1.74 30.61 2.29 45.88 2.62 17.53.37 35.16.07 52.72-1.16-13.51-88.44-30.03-176.36-44.94-250.32-13.76-.18-27.52-.41-41.28-.39-37.45.07-74.82 2.02-112.18 4.36-23.55 1.47-48.89 4.11-69.45 16.7-11.44 7.01-20.27 17.57-25.81 29.75-6.95 15.27-5.4 32.22.37 47.59 5.61 14.95 14.26 28.69 23.36 41.73 6.82 9.78 14.26 17.59 25.26 22.6 21.34 9.74 47.15 5.39 69.93 6.76 19.3 1.16 39.98 6 46.71 26.58 2.49 7.6 2.3 15.56 1.97 23.46-.26 6.13-1.13 13.48 2.19 19.03zM1859.35 1724.39c0 50.26-21.26 181.7 112.12 197.17 0 0-141.11 25.13-146.91-67.66-5.8-92.78 34.79-129.51 34.79-129.51zM1952.14 2141.92s102.45 135.31 257.09 90.85c0 0-15.46 44.46-131.45 34.79-115.98-9.65-125.64-125.64-125.64-125.64z" enable-background="new" opacity=".25"></path><path fill="#7a1752" d="M2193.95 2317.52c-27.81-.85-55.67-.44-83.44-2.3-26.92-1.81-53.86-5.6-79.74-13.42-24.48-7.39-45.83-18.87-65.86-34.69-37.17-29.36-72.24-71.37-77.81-120.07-2.73-23.85 2.96-47.15 9.32-69.98 6.33-22.72 15.11-47.02 12.47-70.97-5.25-47.57-57.38-59.9-86.08-90.11-28.71-30.22-23.34-75.17-19.12-113.31 6.3-56.99 21.16-112.55 36.43-167.67 7.76-28.01 15.64-56 22.55-84.24 5.17-21.16 11.55-43.12 10.6-65.14-1.15-26.69-14.36-49.2-36.19-64.31-23.76-16.44-52.98-24.29-81.01-29.71-31.84-6.15-64.2-9.1-96.47-12.08-27.64-2.55-55.68-4.52-82.8-10.7-58.68-13.37-116.94-28.29-175.84-40.74-27.03-5.71-54.19-10.76-81.21-16.47-19.02-4.02-38.25-8.68-55.49-17.93-16.17-8.67-29.72-22.13-34.01-40.47-2.93-12.55.89-25.45 3.44-37.72 2.82-13.53 2.79-25.96-2.62-38.9-2.08-4.97-3.32-7.41-8.62-6.78-5.67.67-10.87 1.7-16.58.46-16.18-3.5-30.01-16.56-34.97-32.16-5.73-18.03-2.27-37.91 1.41-55.99.5-2.46 1.07-4.92 1.6-7.38-82.5 87.65-166.77 207.94-233.31 371.8 0 0 92.03 96.45 185.73 140.88-21.91 146.7-45.65 682.08-28.38 707.24 14.95 21.77 651.58 316.31 1119.28 41.3 6.51-3.83 12.1-9.72 16.98-17.16-13.42-.44-26.84-.87-40.26-1.28z" enable-background="new" opacity=".25"></path><path fill="#7a1752" d="M1825.1 859.96s75.19 93.75 88.34 152.96c.01 0 .95-92.1-88.34-152.96zM1459.51 874.76s-75.19 93.75-88.34 152.96c-.01 0-.95-92.1 88.34-152.96z" enable-background="new" opacity=".5"></path><path fill="#fff" d="M1798.3 1032.7c-196.37 106.14-244.13-38.48-319.76 6.63-75.62 45.11 19.82 141.1 130.03 160.54 123.14 21.72 161.87-10.62 206.98-66.34 45.11-55.73 5.25-112.99-17.25-100.83zM1212.48 1090.67c-14.52-20.89 111.26-140.37 136.86-128.2 46.08 21.91-114.62 160.2-136.86 128.2zM2187.29 1159.09c24.7-31.14-217.1-258.22-258.22-241.77-74.01 29.61 220.39 289.47 258.22 241.77zM2248.14 1261.06c18.87-30.49-35.77-104.85-66.61-78.95-30.84 25.91 50.58 104.86 66.61 78.95z" opacity=".2"></path><path fill="#7a1752" d="M1811.35 1224.45s-130.07 41.45-348.49-22.7c0 0 30.99 56.82 163.01 75.8 132.02 18.98 185.48-53.1 185.48-53.1z" enable-background="new" opacity=".5"></path><path fill="#7a1752" d="M1793.81 843.84c1.5 21-25.23 183.51-165.02 163.19-137.07-19.92-115.23-135.21-116.63-155.05-.32-4.66-.08-9.32.48-13.96 28.34-13.86 58.56-24.31 90.78-30.95 70.21-14.46 133-4.3 189.14 24.77.52 3.99.96 7.99 1.25 12z" enable-background="new" opacity=".25"></path><path fill="#131e44" d="M1545.97 416.28c41.91-32.14-30.2-54.07 20.94-101.74-33.02-45.68 34.07-63.28 61.22-66.26 100.34-10.99 50.76 45.86 173.34 56.82 91.94 8.22 94.42 84.64 86.11 134.05 17.28-13.51 41.97-30.39 42.47-17.71.77 19.13-39.8 47.45-39.8 47.45s75.01 16.84 39.04 30.62c-14.27 5.46-28.87 6.08-41.33 4.87 18.34 42.59 45.19 128.43-38.88 124.24 0 0 17.67 62.78-31.31 55.69 0 0-31.05 93.4-81.59 37.73-50.54-55.68-69.73 37.58-93.65-27.84s-199.73-198.82-96.56-277.92z"></path><path fill="#f4f2f3" d="M1825.84 353.95s45.11 19.46 31.84 67.22c.01-.01 45.99-68.11-31.84-67.22z" opacity=".1"></path><path fill="#ffafaa" d="M1629.52 931.02c-46.39-4.22-76.34-45.11-67.17-95.15l1.57-4.31 69.57-206.26 111.03 29.51 6.01 100.05 10.76 107.83c-16.39 63.13-111.33 70.19-131.77 68.33z"></path><path fill="#ed9a98" d="m1750.53 754.85-6.01-100.05-111.03-29.51-63.91 189.49c17.78 17.01 41.66 25.92 66.69 20.56 22.7-4.86 40.55-24.2 64.97-21.74 20.36 2.05 38.88 14.35 38.66 36.49-.22 21.63-15.14 42.36-29.88 56.94-5.81 5.75-12.14 10.88-18.6 15.84 30.16-8.94 61.15-26.57 69.88-60.19l-10.77-107.83z" opacity=".5"></path><path fill="#ed9a98" d="M1618.67 808.48c19.9-9.85 36.64-25.35 51.32-41.79 15.53-17.4 29.67-36.22 42.93-55.4 7.14-10.32 14.41-20.97 19.47-32.49 2.36-5.38 4.28-10.98 5.16-16.81.45-2.96.74-5.86 1.16-8.74l-105.21-27.96-65.89 195.38c17.62-1.22 35.25-4.37 51.06-12.19z"></path><path fill="#ffafaa" d="M1805.1 635.13c-26.9 56.94-60.52 33.51-60.52 33.51s-59.87 121.26-176.9 125.06c-73.43 2.49-99.46-78.2-89.48-182.76 1.52-16.7 4.12-33.95 7.48-51.52 9.11-48.05 24.73-98.81 45.88-147.51 0 0 51.95-78.96 198.27-29.18 146.32 49.78 45.77 212.7 45.77 212.7s50.76-5.31 29.5 39.7z"></path><ellipse cx="1648.98" cy="610" fill="#dd8a8a" opacity=".25" rx="37.05" ry="26.1"></ellipse><path fill="#dd8a8a" d="M1522.98 585.57c0 14.32-16.6 26.03-36.99 26.03-2.71 0-5.31-.22-7.81-.65 1.52-16.7 4.12-33.95 7.48-51.52h.33c20.4 0 36.99 11.71 36.99 26.14z" opacity=".25"></path><path fill="#dd8a8a" d="M1680.59 747.29s-72.3 49.74-121.83 46.21c0 0 64.34 15.69 121.83-46.21z"></path><path fill="#dd8a8a" d="M1592.83 462.25c12.25 4.2 24.06 9.7 34.35 17.64 9.48 7.31 17.62 16.16 25.73 24.9 9.06 9.77 18.24 20.24 32.3 21.63 6.31.62 13.01.44 18.8 3.43 4.5 2.33 8.35 6.43 11.68 10.19 8.23 9.3 14.35 20.73 23.94 28.77 7.6 6.37 19.5 15.38 29.73 11.62 7.88-2.89 14.92-8.49 21.02-14.43 21.22-49.27 46.83-146.67-60.59-183.22-146.33-49.8-198.29 29.17-198.29 29.17-6.06 13.96-11.61 28.11-16.74 42.3 26.3-2.32 52.99-.59 78.07 8z" opacity=".25"></path><path fill="#ed9a98" d="M1517.96 676.97c2.55.69 4.42 2.91 6.2 4.73 1.86 1.91 3.86 3.7 6.41 4.51.71.57 1.45 1.1 2.25 1.57 4.07 2.41 8.86 3.54 13.5 4.13 5.45.69 11 .65 16.47.28 10.18-.7 20.36-2.53 30.19-5.24 6.4-1.77 18.7-5.32 22.23 3.01 1.96 4.64.87 10.42-.38 15.09-1.27 4.73-3.19 9.31-5.78 13.48-9.46 15.25-27.34 22.49-44.86 21.55-17.7-.95-35.18-9.63-45.21-24.49-4.39-6.51-6.88-13.91-7.96-21.68-.84-6.03-1.27-16.7 6.94-16.94z"></path><path fill="#131e44" d="M1564.54 599.77c8.96 5.8 16.94-5.73 16.45.51-.5 6.24-14.65 16.51-24.05 1.25-9.39-15.26 16.81-58.21 24.06-53.38 11.27 7.51-25.42 45.81-16.46 51.62z"></path><path fill="#fff" d="M1548.93 670.03c24.8-9.03 42.4-27.11 65.28-3.81 22.9 23.31-33.76 58.02-68.07 46.51-34.31-11.51-45.92-30.2-39.19-42.91 6.72-12.7 32.15 3.78 41.98.21z"></path><path fill="#131e44" d="M1789.18 638.75c-1.07 3.49-22.79 15.03-25.9 7.72-3.1-7.32 18.21-32.47 20.86-28.22 2.65 4.24-16.86 24.73-16.86 24.73s24.25-11.91 21.9-4.23zM1509.23 437.08c-31.05-5.76-36.37-54.64-14.26-98.32 33.35-65.9 102.23-19.79 154.88-40.53 52.66-20.74 134.78 20.43 178.89 92.34s.35 169.26-27.93 180.72c-28.28 11.46-18.74 48.3-35.86 44.46-17.12-3.83-6.71-15.4-12.51-68.13-5.8-52.72-41.27-29.6-56.6-41.57-114.29-89.25-88.83-50.83-186.61-68.97z"></path><path fill="#f4f2f3" d="M1517.63 401.48s-24.54-18.57-12.6-43.11l11.28 15.26s3.32-35.82 21.89-49.75c0 0-4.64 35.16 5.97 43.11l11.27-39.79 23.88 31.84s-16.58-68.99 21.89-88.22c0 0-21.22 59.7 3.32 69.65 24.54 9.95 37.14-35.15 37.14-35.15s23.88 46.43 9.29 57.7c-14.59 11.28 57.04 19.24 57.04 19.24l-56.38 10.61s.67 23.88 13.93 30.51c0 0-61.02-21.22-61.69-31.84l-10.61 22.56-19.9-19.23-17.91 15.26-21.22-21.89c0-.02-21.89-.68-16.59 13.24zM1850.61 454.77s-55.72 23.88-40.68 40.68c15.03 16.81 32.72 38.91 32.72 38.91l-43.33-4.42 38.03 31.84s-23.88-5.31-30.07 7.08c-6.19 12.38 26.53 57.48 26.53 57.48s-7.08-45.1 1.77-45.1c8.84 0 37.14-1.77 36.26-11.5-.88-9.73-11.5-27.42-11.5-27.42s12.24-19.78 8.84-25.65c-6.11-10.57-50.41-9.73-39.8-28.3 10.62-18.57 21.23-33.6 21.23-33.6z" opacity=".1"></path><path fill="#ffafaa" d="M965.9 1255.17s-242.89 608.38-37.01 693.97c164.64 68.45 196.62-393.25 152.67-631.52l-115.66-62.45z"></path><path fill="#fff" d="M982.1 1376.61c43.1 49.99 48.58 189.69-15.04 223.23-63.61 33.54-13.88-256.77 15.04-223.23zM956.65 1670.39c50.97 64.19 97.16 87.91 16.19 193.16-80.96 105.26-102.94 54.36-93.69-65.93 9.26-120.29 46.27-166.55 77.5-127.23z" opacity=".1"></path><path fill="#dd8a8a" d="M1011.29 1825.58c16.17-28.38 31.8-63.9 15.86-95.78-6.67-13.35-17.07-24.01-26.58-35.33-9.1-10.82-18.27-22.49-14.79-37.4 7.36-31.5 36.85-55.18 52.94-82.24 20.07-33.76 20.7-80.55 17.57-118.49-5.82-70.63-53.87-117.66-106.24-158.98 9.6-26.5 15.85-42.19 15.85-42.19l115.66 62.46c43.95 238.26 11.97 699.96-152.67 631.52-4.97-2.07-9.45-4.69-13.9-7.35 43.48-22.7 74.39-77.75 96.3-116.22z" opacity=".25"></path><path fill="#dd8a8a" d="M1099.93 1572.52s-14.89 181.16-36.87 234.36c0 0 47.72-94.7 36.87-234.36z" enable-background="new"></path><path fill="#ffafaa" d="M1072.08 1334.57s120.06-42.54 44.57-138.17c0 0 3.79-37.52 18.02-97.14 3.85-16.12 31.11-27.38 33.84-47.59 1.05-7.8-52.67-33.88-89.42 85.23 0 0 4.26-68.26 36.76-119.12s-63.21-34.69-98.25 99.39c0 0 39.05-138.37 16.56-137.48-31.27 1.25-69.73 137.14-69.73 137.14s-94.16-127.09-113.51-111.93c-19.34 15.15 60.35 142.61 86.46 196.13 26.12 53.52 16.08 69.53 29.91 88.27 16.96 22.96 104.79 45.27 104.79 45.27z"></path><path fill="#dd8a8a" d="M948.18 1223.56s19.23 71.02 65.35 78.34c-.01 0-72.8-3.52-65.35-78.34z"></path><path fill="#d47c63" d="M1137.1 1092.98s-15.58 5.6-19.53.67c0 0 6.34 8.23 15.47 7.01l4.06-7.68z" opacity=".35"></path><path fill="#dd8a8a" d="M1106.45 1243.78c-4.41-13.74-10.12-27.73-10.5-42.33-.14-5.36.52-10.71 1.41-16.05 4.68-8.42 9.99-16.48 15.91-24.08 3.41-4.39 7.08-9.4 11.12-13.95-5.82 30.77-7.73 49.02-7.73 49.02 42.51 53.87 23 90.88-2.15 112.94.88-7.88 1.25-15.85.59-23.97-1.14-14.09-4.32-28.13-8.65-41.58z" opacity=".25"></path><path fill="#fff" d="m1020.54 994.85 13.25 6.76s6.89-18.29.43-18.89c-6.47-.6-13.68 12.13-13.68 12.13zM1095.25 1002.81l13.96 10.34s10.66-7.73 7.82-14.96-21.78 4.62-21.78 4.62zM1146.49 1047.98l8.92 14.27s11.95-10.31 7.59-13.67c-4.38-3.36-16.51-.6-16.51-.6zM857.52 1029.92c8.11-6.14 10.64-6.92 11.28-10.73.63-3.82-15.72-15.36-18.28-11.22-2.54 4.14 5.71 22.94 7 21.95z" opacity=".2"></path><path fill="#ffafaa" d="M2299.3 1647.68s241.77 200.06 123.18 294.29c-123.5 98.14-208.41-148.5-208.41-148.5l85.23-145.79z"></path><path fill="#dd8a8a" d="M2310.44 1755.26c-1.62 15.52-3.45 31.02-4.14 46.62-1.91 42.59 3.62 98.75 54.49 108.53 6.46 1.24 13.87 2.12 20.43 1.33 7.17-.87 13.45-5.95 20.44-6.75 7.22-.84 10.88 10.12 14.29 15.45 3.97 6.21 8.47 10.64 15.14 13.74-2.66 2.65-5.44 5.28-8.6 7.79-98.7 78.43-172.7-63.26-198.46-123.36 19.41-2.45 37.18-10.47 52.47-24.04 13.03-11.58 23.66-25.31 33.94-39.31z" opacity=".25"></path><path fill="#dd8a8a" d="M2413.37 1771.09s-41.63-58.31-78.48-87.88c0 0 11.02 24.95.82 35 0 0 7.48 20.9-9.66 32.36 0 0 9.15-33.46 1.63-41.43 0 0 8.19-15.28-2.29-40.15 0 .01 58 43.16 87.98 102.1z"></path><path fill="#d1e1ee" d="M2004.58 1494.59v-63.43c0-41.54 33.79-75.32 75.32-75.32 41.54 0 75.33 33.79 75.33 75.32v63.43h50.34v-63.43c0-69.29-56.37-125.66-125.67-125.66-69.29 0-125.66 56.38-125.66 125.66v63.43h50.34z"></path><g opacity=".1"><path fill="#132368" d="M2149.02 1401.26a74.9 74.9 0 0 1 6.22 29.9v63.43h50.34v-63.43c0-16.24-3.2-31.72-8.83-45.98a703.897 703.897 0 0 1-47.73 16.08zM1983.8 1427.73c-9.8.11-19.59.05-29.38-.11-.03 1.19-.18 2.34-.18 3.54v63.43h50.34v-63.43c0-1.4.13-2.77.21-4.15-6.98.33-13.96.64-20.99.72z"></path></g><linearGradient id="h" x1="1955.826" x2="2259.393" y1="1369.628" y2="1927.199" gradientUnits="userSpaceOnUse"><stop offset=".02" stop-color="#d1e1ee"></stop><stop offset=".363" stop-color="#50a7e2"></stop><stop offset="1" stop-color="#182b9b"></stop></linearGradient><path fill="url(#h)" d="M2228.58 1460.53h-96.29c-.61 0-1.3-.17-1.83-.35h-196.41c-16.08 0-29.11 13.12-29.11 29.2v214.48c0 15.99 13.04 29.11 29.11 29.11h290.7c16.08 0 29.11-13.12 29.11-29.11v-214.48c.01-14.77-11.03-27.02-25.28-28.85z"></path><path fill="#132368" d="M2091.34 1586.44c5.45 23 14.19 65.21 14.19 65.21h-52.24s8.67-42.21 14.12-65.21c-8.89-4.37-14.83-13.4-14.83-23.94 0-14.76 12.04-26.73 26.8-26.73 14.83 0 26.87 11.97 26.87 26.73-.01 10.54-6.1 19.57-14.91 23.94z"></path><path fill="#132368" d="M2228.58 1460.53h-8.04c6.53 13.15 10.51 27.89 12.32 42.21 2.36 18.66 1.37 39.22-8.74 55.64-9.92 16.1-26.61 21.97-44.75 22.44-9.02.23-18.49-.36-27 3.21-9.73 4.08-16.81 12.97-21.33 22.28-7.21 14.85-7.96 31.55-13.26 47-5.87 17.11-18.45 28.32-35.48 34.02-43.05 14.43-92.45 12.61-136.39 3.35-14.59-3.08-28.2-7.78-40.96-14.53v27.72c0 15.99 13.04 29.11 29.11 29.11h290.7c16.08 0 29.11-13.12 29.11-29.11v-214.48c0-14.78-11.04-27.03-25.29-28.86z" opacity=".1"></path><path fill="#fff" fill-rule="evenodd" d="M1922.45 1538.33c-11.95.7-10.33-48.01 4.65-52.14 14.97-4.13 4.13 51.63-4.65 52.14zM1935.87 1478.45c-.58-2.57 89.83-22.2 100.16-.52 10.33 21.68-96.54 16.52-100.16.52z" clip-rule="evenodd" opacity=".25"></path><path fill="#ffafaa" d="M2184.88 1784.94s-65.24-4.53-64.96-28.87c.26-22.64 48.74-19.03 64.96-18.51-18.49-1.27-64.08-12.49-61.1-36.38 2.82-22.58 76.42-23.52 76.42-23.52s-63.81-9.31-61.44-35.02c2.89-31.37 107.14-23.93 143.76-21.48 27.14 1.82 57.88 36.34 41.56 60.52 0 0 17.41 3.38 8.66 32.05-3.26 10.69-11.26 22.65-14.99 26.39 8.67 5.76 22.4 18.19 16.48 39.09-5.46 19.25-31.92 14.83-31.92 14.83s20.93 21.46-1.83 38.72c-33.8 25.64-187.16 4.2-175.77-26.24 7.57-20.22 60.17-21.58 60.17-21.58z"></path><path fill="#dd8a8a" d="M2202.09 1677.14s70.95 2.23 94.17 2.56c0-.01-60.62 9.69-94.17-2.56zM2180.94 1737.51s70.95 2.22 94.17 2.55c0 0-60.61 9.7-94.17-2.55zM2176.88 1782.77s70.95 2.23 94.17 2.56c0 0-60.63 9.69-94.17-2.56z"></path><path fill="#dd8a8a" d="M2215.21 1831.47c-26.02-5.09-47.97 1.1-72.91-4.57 39.72 17.78 132.75 25.14 158.17 5.86 22.76-17.26 1.83-38.72 1.83-38.72s26.46 4.41 31.91-14.84c3.62-12.76.18-22.42-4.89-29.54-3.59 1.7.57 44.44-41.41 33.49 1.35 40.55-36.54 55.4-72.7 48.32z"></path><path fill="#fff" d="m2171.82 1633.2-5.56 24.2s-22.32-4.25-22.42-14.16c-.12-9.93 27.98-10.04 27.98-10.04zM2157.43 1692.33s2.34 21.54-3.26 23.28c-5.62 1.73-20.99-2.4-21.03-12.02-.05-9.61 22.07-12.72 24.29-11.26zM2146.33 1743.79s6.03 15.84-1.66 24.39c0 0-21.67-.09-21.08-11.47.59-11.38 22.74-12.92 22.74-12.92zM2147.13 1798.47s4 11.17-2.47 21.99c0 0-15.26-1.3-14.55-11.75.71-10.5 17.02-10.24 17.02-10.24z" opacity=".2"></path><path fill="#fff" d="M2429.68 1860.97c-20.03 30.36-102.06-71.23-81.94-118.49s99.51 91.85 81.94 118.49zM2283 1645.06c-7.12 4.63-92.92-5.92-90.03-16.18 2.88-10.26 117.7-1.77 90.03 16.18z" opacity=".1"></path></g><path fill="#131e44" d="M1524.62 512.6c8.32 1.06 14.22 8.66 13.16 16.99-1.06 8.32-8.66 14.21-16.99 13.16-8.33-1.06-14.22-8.66-13.16-16.98 1.06-8.34 8.67-14.23 16.99-13.17zM1645.27 540.69c8.32 1.06 14.21 8.66 13.16 16.99-1.05 8.33-8.66 14.22-16.98 13.16-8.33-1.05-14.22-8.66-13.16-16.98 1.04-8.34 8.65-14.23 16.98-13.17zM1627.16 513.7c-15.14 12.41 53.42 27.75 69.52 18.12 24.19-14.46-52.54-32.02-69.52-18.12zM1488.88 476.82c-15.14 12.4 53.42 27.75 69.52 18.12 24.19-14.46-52.54-32.01-69.52-18.12z"></path></g><g><path fill="#132368" fill-rule="evenodd" d="m1641.24 1889.93-924.82-1.18c-60.32-.07-109.29 48.77-109.36 109.09l-.78 611.7c-.08 60.32 48.76 109.29 109.09 109.36l924.81 1.18c60.33.07 109.29-48.77 109.36-109.09l.78-611.69c.09-60.33-48.76-109.29-109.08-109.37z" clip-rule="evenodd"></path><path fill="#d1e1ee" fill-rule="evenodd" d="M817.87 1372.74h879.16v1174.89H817.87z" clip-rule="evenodd" transform="rotate(7.82 1257.447 1959.386)"></path><path fill="#fff" fill-rule="evenodd" d="M980.45 1436.68h310.56v56.78H980.45z" clip-rule="evenodd" transform="rotate(7.82 1135.649 1464.407)"></path><path fill="#fff" fill-rule="evenodd" d="M954.3 1548.18h686.29v240.69H954.3z" clip-rule="evenodd" transform="rotate(7.82 1297.35 1667.763)"></path><path fill="#fff" fill-rule="evenodd" d="M925.44 1837.79H1236v56.78H925.44z" clip-rule="evenodd" transform="rotate(7.82 1080.795 1865.528)"></path><path fill="#fff" fill-rule="evenodd" d="M1208.42 1970.38h375.73v240.7h-375.73z" clip-rule="evenodd" transform="rotate(7.82 1396.234 2089.816)"></path><path fill="#fff" fill-rule="evenodd" d="M901.25 1920.59h263.96v240.7H901.25z" clip-rule="evenodd" transform="rotate(7.82 1033.333 2040.215)"></path><path fill="#fff" fill-rule="evenodd" d="M862.4 2218.32h686.29v240.69H862.4z" clip-rule="evenodd" transform="rotate(7.82 1205.648 2337.819)"></path><path fill="#132368" fill-rule="evenodd" d="m1703.07 1945.95-89.95 655.96-870.97-119.5 159.56-1163.93 360.74 49.45c38.93 129.49 129.23 414.89 188.67 483.8.01.01 194.94-2.68 251.95 94.22z" clip-rule="evenodd" opacity=".1"></path><path fill="#d1e1ee" fill-rule="evenodd" d="M634.06 1396.97h728.15v973.08H634.06z" clip-rule="evenodd" transform="rotate(-16.054 998.26 1883.848)"></path><g opacity=".5"><path fill="#50a7e2" fill-rule="evenodd" d="m870.14 1536.31-247.18 71.13-13.01-45.2 247.19-71.12z" clip-rule="evenodd"></path><path fill="#50a7e2" fill-rule="evenodd" d="M646.51 1549.52h568.41v199.35H646.51z" clip-rule="evenodd" transform="rotate(-16.054 930.829 1649.497)"></path><path fill="#50a7e2" fill-rule="evenodd" d="M704.17 1848.01h257.22v47.03H704.17z" clip-rule="evenodd" transform="rotate(-16.054 832.862 1871.836)"></path><path fill="#50a7e2" fill-rule="evenodd" d="M991.44 1836.19h311.19v199.35H991.44z" clip-rule="evenodd" transform="rotate(-16.054 1146.905 1935.519)"></path><path fill="#50a7e2" fill-rule="evenodd" d="M746.06 1920.13h218.62v199.35H746.06z" clip-rule="evenodd" transform="rotate(-16.054 855.413 2020.078)"></path><path fill="#50a7e2" fill-rule="evenodd" d="M801.44 2087.9h568.41v199.35H801.44z" clip-rule="evenodd" transform="rotate(-16.054 1085.772 2187.973)"></path></g><path fill="#132368" fill-rule="evenodd" d="M1373.12 1870.05c-16.32.06-32.63.24-48.94.79-45.37 1.55-90.65 5.31-135.91 8.74-43.99 3.34-87.92 5.06-131.99 6.73-21.96.83-43.91 1.75-65.88 2.43-10.12.31-20.24.63-30.36.81-9.44.17-19.44.01-28.38-3.4-5.42-2.07-10.82-5.21-13.71-10.44-2.53-4.57-2.72-9.89-4.09-14.83-3.01-10.91-10.41-17.01-19.6-19.74-15.58 1.8-31.16 3.59-46.74 5.61-66.51 8.61-150.9 13.46-230.15 30.11l165.44 574.9 699.76-201.36-109.45-380.35z" clip-rule="evenodd" opacity=".2"></path><linearGradient id="i" x1="677.005" x2="1587.706" y1="1807.391" y2="2938.025" gradientUnits="userSpaceOnUse"><stop offset=".02" stop-color="#d1e1ee"></stop><stop offset=".363" stop-color="#50a7e2"></stop><stop offset="1" stop-color="#182b9b"></stop></linearGradient><path fill="url(#i)" fill-rule="evenodd" d="m1566.9 1922.97-670.28-.85v-16.72c0-17.68-14.33-32.01-32.01-32.01H677.72c-17.68 0-32.01 14.33-32.01 32.01v16.4h-3.63c-60.32-.07-109.29 48.77-109.36 109.09l-.78 611.7c-.08 60.32 48.76 109.29 109.09 109.36l924.81 1.18c60.33.07 109.29-48.77 109.36-109.09l.78-611.69c.08-60.34-48.76-109.3-109.08-109.38z" clip-rule="evenodd"></path><path fill="#fff" fill-rule="evenodd" d="M554.98 2040.68c-3.63-17.44 6.2-80.54 38.72-61.95 32.53 18.58-34.85 80.53-38.72 61.95zM612.08 1960.38c-.12-2.79 61.95-30.2 75.89-6.97 13.94 23.24-75.12 25.56-75.89 6.97z" clip-rule="evenodd"></path><path fill="#132368" fill-rule="evenodd" d="m1566.9 1922.97-136.63-.17c-32.1 41.73-78.33 73.7-123.13 98.7-64.75 36.13-135 60.09-206.51 78.81-90.11 23.59-183.12 35.99-276.2 38.26-94.2 2.3-188.81-5.81-281.05-25.24-3.59-.76-7.18-1.54-10.76-2.33l-.58 453.35c97.96-.17 195.95-.17 293.83 4.21 107.54 4.82 215.31 14.58 320.85 36.42 50.18 10.38 99.85 23.57 148.15 40.74 43.85 15.59 87.45 33.61 125.68 60.54 19.64 13.84 37.53 29.56 53.79 46.75l91.51.12c60.33.07 109.29-48.77 109.36-109.09l.78-611.69c.07-60.34-48.77-109.3-109.09-109.38z" clip-rule="evenodd" opacity=".1"></path><path fill="#132368" fill-rule="evenodd" d="M1621.79 2524.29c33.52 4.47-2.14 224.55-57.74 188.2-55.6-36.36-6.42-196.76 57.74-188.2z" clip-rule="evenodd" opacity=".25"></path><path fill="#132368" fill-rule="evenodd" d="M1632.73 1945.15c.33 35.19.55 71.16-11.03 104.67-13.01 37.64-42.43 71.5-79.01 87.73-38.03 16.87-81.62 18.66-122.6 18.32-42.72-.35-85.38-4.73-128.11-4.09-56 .83-110.91 11.73-165.38 23.86-55.06 12.26-110.89 26.41-167.42 29.55-53.3 2.97-105.39-10.19-158.22-14.41-52.33-4.18-104.38 6.08-156.42 10.38-37.26 3.08-74.97 4.2-112.03-1.13l-.36 281.71h1143.27l.58-449.4c.03-35.59-16.95-67.22-43.27-87.19z" clip-rule="evenodd" opacity=".1"></path><path fill="#132368" d="M1747.87 1506.5c-31.08-25.5-77.03-20.96-102.57 10.18-20 24.38-21.52 57.77-6.37 83.4l-134.61 164.12 18.76 15.39 17.65-21.52 17.35 14.23 19.78-24.11-8.44-6.91 15.43-18.81 8.43 6.92 18.36-22.38-8.44-6.92 15.39-18.76 8.43 6.92 18.4-22.43-8.44-6.92 15.39-18.76 8.43 6.92 13.61-16.6c28.77 11.67 62.88 3.92 83.59-21.32 25.55-31.15 21.01-77.1-10.13-102.64zm-42.9 86.71c-7.92.83-16.08-1.34-22.67-6.75-7.95-6.52-11.79-16.27-11.04-25.78.44-6.06 2.64-12.04 6.81-17.12 10.69-13.03 29.92-14.98 42.95-4.29 13.02 10.69 14.93 29.97 4.25 43-5.34 6.48-12.64 10.08-20.3 10.94z"></path><path fill="#50a7e2" d="M599.66 1414.76c-32.46 23.7-39.58 69.32-15.84 101.84 18.59 25.47 50.53 35.3 79.13 27.06l125.15 171.42 19.59-14.3-16.41-22.47 18.13-13.23-18.38-25.18-8.81 6.43-14.35-19.65 8.81-6.43-17.06-23.38-8.81 6.43-14.3-19.59 8.81-6.43-17.11-23.43-8.81 6.43-14.3-19.59 8.81-6.43-12.66-17.33c18.5-24.93 19.55-59.89.3-86.26-23.75-32.54-69.37-39.65-101.89-15.91zm73.18 63.25c-1.18 7.88-5.33 15.23-12.22 20.26-8.3 6.06-18.7 7.34-27.73 4.23-5.75-1.95-10.99-5.57-14.86-10.87-9.93-13.61-7-32.72 6.6-42.65 13.61-9.93 32.75-6.95 42.69 6.66 4.95 6.77 6.61 14.74 5.52 22.37z"></path><path fill="#d1c63d" fill-rule="evenodd" d="M497.03 2234.78h1182.52v185.86H497.03z" clip-rule="evenodd"></path><path fill="#fff" fill-rule="evenodd" d="M517.93 2301.64c-11.34-17.64-9.29-51.11 5.42-52.66 14.72-1.55 1.55 63.5-5.42 52.66zM533.42 2249.75c-.82-2.31 102.22-3.87 120.03 1.55 17.82 5.42-106.86 35.63-120.03-1.55z" clip-rule="evenodd" opacity=".25"></path><path fill="#e38427" fill-rule="evenodd" d="M1679.52 2234.82v185.8H496.99v-55.36c725.23 71.35 1179.22-130.45 1179.22-130.45h3.31z" clip-rule="evenodd" opacity=".2"></path><path fill="#bfb232" fill-rule="evenodd" d="m1676.19 2234.78 76.41-20.65v186.89l-75.89 19.62z" clip-rule="evenodd"></path><path fill="#e38427" fill-rule="evenodd" d="M1749.09 2215.08c-.13 1.52-.19 3.04-.35 4.55-1.44 13.66-3.55 27.55-8.13 40.55-3.66 10.38-9.65 22.05-20.47 26.4-20.28 8.15-34.84-10.2-43.89-29.76l.46 163.81 75.89-19.62v-186.89l-3.51.96z" clip-rule="evenodd" opacity=".2"></path><g opacity=".5"><path fill="#d1e1ee" d="M691.68 2281.16c21.78 0 37.29 12.55 41.59 32.24H707.3c-3.08-6.52-8.86-10.09-16-10.09-11.08 0-18.34 8.61-18.34 21.9 0 13.41 7.26 22.03 18.34 22.03 7.14 0 12.92-3.57 16-10.1h25.97c-4.31 19.69-19.81 32.25-41.59 32.25-26.09 0-43.19-18.21-43.19-44.18 0-25.84 17.11-44.05 43.19-44.05zM786.31 2369.63c-24.61 0-44.55-18.45-44.55-44.54s19.94-44.43 44.55-44.43c24.74 0 44.42 18.34 44.42 44.43.01 26.09-19.8 44.54-44.42 44.54zm0-22.38c12.43 0 19.94-8.74 19.94-22.15 0-13.66-7.51-22.28-19.94-22.28-12.55 0-19.94 8.61-19.94 22.28.01 13.4 7.39 22.15 19.94 22.15zM921.93 2282.02v86.76h-24.12l-32.12-48.49v48.49h-24.12v-86.76h24.12l32.12 49.11v-49.11h24.12zM935.7 2282.02h58.82v19.2h-34.7v15.26h25.6v18.34h-25.6v33.96H935.7v-86.76zM1004.74 2282.02h24.12v86.76h-24.12v-86.76zM1122.26 2325.33c0 25.1-17.6 43.44-45.29 43.44h-34.33v-86.76h34.33c27.69.01 45.29 17.85 45.29 43.32zm-47.13 22.15c13.91 0 22.64-7.88 22.64-22.15 0-14.39-8.74-22.39-22.64-22.39h-8.37v44.54h8.37zM1188.58 2301.34h-31.38v14.15h27.69v18.34h-27.69v15.62h31.38v19.32h-55.5v-86.76h55.5v19.33zM1280.88 2282.02v86.76h-24.12l-32.12-48.49v48.49h-24.12v-86.76h24.12l32.12 49.11v-49.11h24.12zM1289.86 2282.02H1360v19.2h-23.14v67.56h-24.12v-67.56h-22.88v-19.2zM1368.98 2282.02h24.12v86.76h-24.12v-86.76zM1461.77 2354.63h-30.76l-4.68 14.15h-25.35l31.63-86.76h27.8l31.5 86.76h-25.47l-4.67-14.15zm-15.38-46.53-9.23 28.06h18.59l-9.36-28.06zM1523.91 2282.02v68.3h26.95v18.46h-51.07v-86.76h24.12z"></path></g></g></svg>