<svg xmlns="http://www.w3.org/2000/svg" enable-background="new 0 0 3000 3000" viewBox="0 0 3000 3000" id="cybersecurity-developer"><g><linearGradient id="a" x1="1958.236" x2="267.091" y1="667.352" y2="6691.583" gradientUnits="userSpaceOnUse"><stop offset=".008" stop-color="#182b9b"></stop><stop offset="1" stop-color="#21032b"></stop></linearGradient><path fill="url(#a)" d="M2683.09 2502.17c19.28-87.53 34.18-180.41 44.85-278.57 71.36-656.55-256.99-1594.51-914.42-1441.43-442.41 103.03-376.51 672.6-1138.17 992.23-326.37 136.96-443.07 425.75-406.42 727.77h2414.16z"></path><path fill="#21032b" d="M2737.35 2014.37c-5.15 38.66-13.04 76.71-25.25 113.14-24.7 73.71-75.64 145.11-152.94 145.83-85.06.79-163.71-68.74-219.26-133.09-27.17-31.47-50.67-65.87-71.01-103.04-17.21-31.45-29.77-65.96-42.08-99.99-27.77-76.73-51.38-159.33-95.4-227.14-17.49-26.95-39.9-52.85-69.43-62.81-37.54-12.67-75.21 7.38-108.55 24.94-87.61 46.14-164.1 117.39-258.5 147.47-48.77 15.54-99.54 17.98-149.74 10.83-38.5-5.48-76.85-17.08-110.11-39.69-64-43.53-93.32-121.03-107.8-199.17-14.11 68.41-24.91 137.61-40.29 205.73-16.08 71.2-35.79 142.76-68.04 207.32-27.92 55.9-67.26 106.46-123.46 127.55-74.69 28.03-156.88 18.53-230.72-7.98-39.67-14.24-78.1-33.59-114.07-57.41-17.1 41.99-42.73 79.65-72.36 112.3-43.17 47.59-94.55 85.72-148.1 117.63-64.82 38.62-136.12 63.41-209.75 69.38-19.13 1.55-38.27 1.82-57.36.97-1.65 44.4.27 89.55 5.79 135.03h2414.16c19.28-87.53 34.18-180.41 44.85-278.57 7.32-67.28 10.43-137.51 9.42-209.23z" opacity=".35"></path><linearGradient id="b" x1="1209.835" x2="-1187.726" y1="-33.367" y2="8507.268" gradientTransform="rotate(-4.211 863.746 1076.002)" gradientUnits="userSpaceOnUse"><stop offset=".008" stop-color="#182b9b"></stop><stop offset="1" stop-color="#21032b"></stop></linearGradient><path fill="url(#b)" d="M1470.81 620.44C1390.24 7.55-457.65 1900.4 593.28 1730.26c355.97-57.63 958.1-496.93 877.53-1109.82z"></path><path fill="#f4f2f3" d="M396.34 1310.39c53.03 6.28 106.43 7.42 159.86 7.24 121.12-.39 242.94-10.29 361.12-37.25 58.98-13.46 117-31.21 172.66-54.38 55.85-23.24 109.01-51.83 159.65-84.13 51.19-32.66 102.01-68.28 147.28-108.21 12.24-10.8 24.7-21.42 36.58-32.58 8.44-25.06 15.81-50.61 21.98-76.64-30.54-1.2-61.9 7.77-92.42 7.5-15.61-.14-32.33-2.83-47.01-7.96-7.28-2.54-10.81-6.48-12.8-13.54-2.97-10.54-6.88-20.77-9.86-31.28-3.57-12.58-4.22-25.8-8.24-38.26-10.61-32.9-51.24-41.16-83.1-39.56-32.23 1.61-67.58 11.47-98.51-1.15-8.06-3.29-16.66-7.59-20.38-15.61-3.29-7.1-2.4-15.49-2.84-23.07-1.82-31.37-15.81-58.37-41.02-78.38-12.58-9.99-26.36-19.12-40.59-27.57-227.87 163.51-481.1 426.36-620.7 652.49 6.1.82 12.22 1.61 18.34 2.34z" enable-background="new" opacity=".1"></path><path fill="#fff" d="M2572.96 1577.4c-7.5 2.53-9.55 4.58-12.09 12.09-2.53-7.51-4.59-9.56-12.09-12.09 7.5-2.54 9.56-4.59 12.09-12.09 2.54 7.51 4.59 9.55 12.09 12.09zM1861.01 954.86c-7.5 2.53-9.56 4.58-12.09 12.09-2.53-7.5-4.59-9.56-12.1-12.09 7.51-2.53 9.56-4.59 12.1-12.09 2.53 7.51 4.59 9.56 12.09 12.09zM1131.03 700.54c-10.24 3.46-13.05 6.26-16.5 16.5-3.46-10.25-6.26-13.05-16.51-16.5 10.25-3.46 13.05-6.26 16.51-16.5 3.45 10.24 6.26 13.04 16.5 16.5zM907.52 1828.33c-10.24 3.45-13.05 6.26-16.5 16.5-3.46-10.24-6.26-13.05-16.5-16.5 10.24-3.46 13.05-6.26 16.5-16.51 3.45 10.25 6.26 13.05 16.5 16.51zM532.87 1305.78c-10.25 3.46-13.05 6.27-16.51 16.51-3.46-10.24-6.26-13.05-16.5-16.51 10.24-3.46 13.05-6.26 16.5-16.5 3.46 10.24 6.26 13.04 16.51 16.5z"></path><path fill="#fff" d="M1729.06 1004.54c4.81 0 8.72-3.91 8.72-8.72 0-4.85-3.9-8.75-8.72-8.75-4.81 0-8.72 3.91-8.72 8.75 0 4.82 3.91 8.72 8.72 8.72zM1729.06 1049.44c4.81 0 8.72-3.9 8.72-8.72 0-4.85-3.9-8.75-8.72-8.75-4.81 0-8.72 3.9-8.72 8.75 0 4.82 3.91 8.72 8.72 8.72z" opacity=".8"></path><path fill="#fff" d="M1729.06 1094.35c4.81 0 8.72-3.91 8.72-8.72 0-4.85-3.9-8.75-8.72-8.75-4.81 0-8.72 3.91-8.72 8.75 0 4.81 3.91 8.72 8.72 8.72z" opacity=".6"></path><path fill="#fff" d="M1729.06 1139.25c4.81 0 8.72-3.91 8.72-8.72 0-4.85-3.9-8.75-8.72-8.75-4.81 0-8.72 3.9-8.72 8.75 0 4.81 3.91 8.72 8.72 8.72z" opacity=".3"></path><path fill="#fff" d="M380.8 2148.06c4.82 0 8.72-3.91 8.72-8.72 0-4.85-3.9-8.75-8.72-8.75-4.81 0-8.72 3.91-8.72 8.75 0 4.82 3.91 8.72 8.72 8.72zM380.8 2192.96c4.82 0 8.72-3.9 8.72-8.72 0-4.84-3.9-8.75-8.72-8.75-4.81 0-8.72 3.9-8.72 8.75 0 4.82 3.91 8.72 8.72 8.72z" opacity=".8"></path><path fill="#fff" d="M380.8 2237.87c4.82 0 8.72-3.91 8.72-8.72 0-4.85-3.9-8.75-8.72-8.75-4.81 0-8.72 3.91-8.72 8.75 0 4.81 3.91 8.72 8.72 8.72z" opacity=".6"></path><path fill="#fff" d="M380.8 2282.77c4.82 0 8.72-3.91 8.72-8.72 0-4.85-3.9-8.75-8.72-8.75-4.81 0-8.72 3.9-8.72 8.75 0 4.81 3.91 8.72 8.72 8.72z" opacity=".3"></path><path fill="#fff" d="M2638.92 1916.92c4.81 0 8.72-3.91 8.72-8.72 0-4.85-3.9-8.75-8.72-8.75-4.81 0-8.72 3.91-8.72 8.75 0 4.81 3.91 8.72 8.72 8.72zM2638.92 1961.82c4.81 0 8.72-3.9 8.72-8.72 0-4.85-3.9-8.75-8.72-8.75-4.81 0-8.72 3.91-8.72 8.75 0 4.81 3.91 8.72 8.72 8.72z" opacity=".8"></path><path fill="#fff" d="M2638.92 2006.72c4.81 0 8.72-3.91 8.72-8.72 0-4.85-3.9-8.76-8.72-8.76-4.81 0-8.72 3.91-8.72 8.76 0 4.81 3.91 8.72 8.72 8.72z" opacity=".6"></path><path fill="#fff" d="M2638.92 2051.62c4.81 0 8.72-3.91 8.72-8.72 0-4.85-3.9-8.75-8.72-8.75-4.81 0-8.72 3.9-8.72 8.75 0 4.81 3.91 8.72 8.72 8.72z" opacity=".3"></path></g><g><path fill="#ffafaa" d="m1013.15 1365.67-159.92 94.23-101.43-333.8-71.35 10.03s-19.65 433.12 120.62 516.41c124.62 73.99 367.82-142.95 367.82-142.95l-155.74-143.92z"></path><path fill="#dd8a8a" d="m1013.15 1365.67-123.68 72.88c-3.19 5.95-5.77 12.19-7.16 18.91-3.52 17.03 2.02 34.31 2.72 51.39.63 15.39-2.04 31.16-13.45 42.38-10.57 10.4-28.4 17.38-43.04 12.63-13.52-4.38-21.39-17.51-25.98-30.28-9.47 2.48-18.91 5.45-28.65 2.19-8.88-2.97-16.33-10.09-22.61-16.78-26.15-27.83-42.88-61.73-54.55-97.78-.66-2.05-1.28-4.11-1.92-6.17 15.54 102.32 46.27 201.88 106.24 237.49 124.62 73.99 367.82-142.95 367.82-142.95l-155.74-143.91z" opacity=".25"></path><path fill="#dd8a8a" d="M925.36 1472.42c7.83 56.97 35.45 111.43 75.27 153.64 90.28-46.91 168.28-116.47 168.28-116.47l-155.75-143.92-88.42 52.1c-2.07 18.17-1.88 36.51.62 54.65z" opacity=".35"></path><path fill="#fff" d="M835.96 1444.31c8.87-.19-57.02-219.37-72.91-218.3-15.9 1.07-.98 219.85 72.91 218.3z" opacity=".2"></path><path fill="#dd8a8a" d="M853.23 1459.9s-11.5 25.88-36.17 38.81c0 0 33.16 2.07 36.17-38.81z"></path><path fill="#ffafaa" d="M652.25 1106.24c2.27 6.63 5.21 12.75 8.36 18.21 9.7 16.82 21.5 27.35 21.5 27.35s50.35 29.66 74.34-17.08c.07-.2.24-.42.37-.58 4.75-3.35 8.92-11.85 11.73-21.93 1.92-6.95 3.22-14.66 3.69-21.97 1.13-17.86 43.29-42.87 36.97-51.94-6.36-9.05-34.75-1.15-42.39 11.61-7.64 12.71-18.97 5.73-20.68-8.32-2.65-21.68 6.93-124.83-8.22-125.32-15.15-.48-24.26 101.74-24.26 101.74s-9.13-117.61-24.02-110.39C674.8 914.84 686 1022.7 686 1022.7s-13.65-84.93-28.91-86.32c-15.27-1.44-1.9 96.67-1.9 96.67s-17.76-58.87-31.57-59.13c-13.83-.24 19.42 105.22 28.63 132.32z"></path><path fill="#dd8a8a" d="M740.41 1148.77c-7.72 6.61-18.24 8.8-28.18 8.6-9.86-.2-20.15-2.82-28.11-8.85-2.36-1.79-4.3-3.88-6.05-6.13 1.32.93 2.64 1.8 3.97 2.51 16.35 8.71 32.83-3.43 32.83-3.43 3.82 2.03 20.66.8 34.34-3.81-2.61 3.95-5.15 7.99-8.8 11.11zM649.03 1038.85c5.59-2.91 11.22-5.7 16.96-8.16 5.74-2.43 11.58-4.73 17.61-5.91 6.07-1.3 12.31-2.07 18.52-2.7 6.22-.59 12.48-.92 18.77-.57-6.19-1.32-12.58-1.47-18.9-1.25-6.34.22-12.61 1.05-18.88 2.18-6.3 1.38-12.23 3.77-17.92 6.56-5.64 2.85-11.1 6.08-16.16 9.85z"></path><g><linearGradient id="c" x1="1642.434" x2="1606.273" y1="1782.143" y2="3817.561" gradientUnits="userSpaceOnUse"><stop offset="0" stop-color="#871d5c"></stop><stop offset="1" stop-color="#601843"></stop></linearGradient><path fill="url(#c)" d="m1918.23 2502.17-49.73-319.02-522.6 46.15 73.99 272.87z"></path><path fill="#601843" d="M1715.68 2502.17c40.69-22.94 73.21-34.26 73.21-34.26-90.82-23.27-139.38.41-165.31 34.26h92.1z" opacity=".5"></path><linearGradient id="d" x1="1111.653" x2="1143.61" y1="1017.227" y2="2533.713" gradientUnits="userSpaceOnUse"><stop offset="0" stop-color="#ffe245"></stop><stop offset=".526" stop-color="#de007b"></stop><stop offset="1" stop-color="#e38427"></stop></linearGradient><path fill="url(#d)" d="M1307.25 1178.61s-238.77 111-380.08 204.66c0 0 35.71 233.63 153.11 235.2 117.4 1.56 226.97-439.86 226.97-439.86z"></path><path fill="#ffafaa" d="M1827.65 1455.57s210.33 261.27 100.24 374.65c-52.46 54.02-230.14-216.45-230.14-216.45l129.9-158.2z"></path><path fill="#dd8a8a" d="M1952.23 1705.02c-29.2-14.12-58.85-34.75-71.53-65.85-2.69-6.6-4.42-13.1-4.41-20.25.02-7.99 1.64-15.98 3.77-23.65 3.47-12.45 8.77-25.75 17.1-36.08-34.14-59.66-69.51-103.61-69.51-103.61l-129.9 158.2s177.68 270.48 230.14 216.45c31.35-32.29 36.7-76.57 28.34-123.4-1.33-.62-2.68-1.18-4-1.81z" opacity=".35"></path><linearGradient id="e" x1="1698.574" x2="1730.53" y1="1004.859" y2="2521.344" gradientUnits="userSpaceOnUse"><stop offset="0" stop-color="#ffe245"></stop><stop offset=".526" stop-color="#de007b"></stop><stop offset="1" stop-color="#e38427"></stop></linearGradient><path fill="url(#e)" d="M1534.95 1178.61s261.41 147.14 341.24 316.2c0 0 3.13 122.1-114.27 123.66-117.4 1.56-226.97-439.86-226.97-439.86z"></path><path fill="#7a1752" d="M1640.07 1437.74c16.8 4.23 33.4 9.22 49.76 14.91 13.16 4.58 26.67 9.15 40.38 11.77 20.66 3.94 44 .29 55.61-19.08 9.44-15.76 9.06-35.96 8.51-53.68-.13-4.18-.39-8.43-.64-12.72 33.84 36.24 63.4 75.41 82.51 115.87 0 0 3.13 122.1-114.27 123.66-52.71.7-103.83-87.9-144.18-185.75 7.46 1.55 14.92 3.15 22.32 5.02z" enable-background="new" opacity=".25"></path><linearGradient id="f" x1="1347.649" x2="1311.518" y1="1778.195" y2="3811.939" gradientUnits="userSpaceOnUse"><stop offset="0" stop-color="#871d5c"></stop><stop offset="1" stop-color="#601843"></stop></linearGradient><path fill="url(#f)" d="m1538.29 2502.17 120.38-259.36-597.48-68.4-45.67 327.76z"></path><path fill="#601843" d="M1153 2502.17c55.99-10.41 110.79-21.28 110.79-21.28-89.66-63.38-166.86-10.17-206.22 21.28H1153z" opacity=".8"></path><path fill="#601843" d="M1146.26 2361.21c33.92-14.26 72.05-17.21 108.02-2.64 21.21 8.59 39.71 21.03 54.9 38.53 15.51 17.88 27.24 38.72 36.49 60.49 4.33 10.18 7.97 20.65 12.51 30.91 1.99 4.51 4.08 9.38 6.94 13.68h252.18c5.66-16.66 9.54-33.98 15.73-50.03 8.21-21.27 22.14-39.27 39.42-53.11 31.69-25.38 76.86-33.18 122.44-27.36 34.69 4.43 67.05 20.07 93.77 47.58 7.12 7.33 13.8 15.02 20.23 22.95l-40.38-259.04-389.3 34.38-418.01-43.12-40.27 285.36c9.06-9.76 18.19-19.35 27.65-28.55 28.87-28.1 60.73-54.49 97.68-70.03z" opacity=".8"></path><linearGradient id="g" x1="1430.339" x2="1462.296" y1="1010.511" y2="2527.001" gradientUnits="userSpaceOnUse"><stop offset="0" stop-color="#ffe245"></stop><stop offset=".526" stop-color="#de007b"></stop><stop offset="1" stop-color="#e38427"></stop></linearGradient><path fill="url(#g)" d="M1409.77 1151.41c-375-4.29-430.04 930.66-359.58 1064.49 161.03 114.3 756.93 152.87 818.72-24.52 42.71-122.59-19.04-1034.94-459.14-1039.97z"></path><path fill="#f4f2f3" d="M1253.24 1523.02c48.74-119.02 16.42-85.77 72.26-137.24 55.84-51.46 90.32 3.03 149.44-24.22 59.12-27.25 134.66-30.27 110.03 30.27-24.63 60.55 30.33 85.74 54.19 118.06 72.26 97.89-465.31 206.96-385.92 13.13z" enable-background="new" opacity=".1"></path><path fill="#7a1752" d="m1158.98 1340.92 96.27-129.92c0-.01-84.53 83.74-96.27 129.92zM1689.36 1320.83l-111.92-117.14s53.62 33.75 111.92 117.14z" enable-background="new" opacity=".25"></path><path fill="#7a1752" d="M1738.37 1404.9c4.77 73.4.19 147.35 5.08 220.78 1.5 22.52-1.33 44.28-6.34 66.22-5.01 21.93-11.65 43.8-13.48 66.31-3.5 42.93 17.45 81.68 37.01 118.4 20.23 37.99 32.69 78.99 29.96 122.39-2.53 40.16-17.25 78.26-36.44 113.25-33.65 61.37-78.91 124.03-148.81 145.32-29.94 9.12-61.65 10.62-92.75 10.26-36.39-.42-73.66-1.6-109.63-7.44-30.09-4.88-58.74-14.94-83.37-33.22-29.93-22.21-54.45-52.85-72.23-85.41-19.09-34.96-29.88-73.64-36.5-112.73-3.59-21.18-6.57-42.69-8.18-64.12-1.84-24.43-.81-48.97 1.9-73.3 5.41-48.67 16.09-96.75 23.87-145.07 3.5-21.76 8.09-43.53 7.99-65.68-.05-10.65-1.06-21.17-6.05-30.71-4.36-8.36-10.52-15.58-16.59-22.74-11.77-13.88-24.25-28.95-25.14-47.98-.96-20.57 11.17-40.42 2.99-60.68-5.25-13-17.75-14.08-29.18-19.26-12.5-5.67-22.58-14.73-27.57-27.69-10.42-27.07-2.57-59.21 5.02-85.96.92-3.26 2.03-6.46 3.05-9.69-130.47 284.43-140.85 748.45-92.78 839.74 161.03 114.3 756.93 152.87 818.72-24.52 28.17-80.87 10.84-505.43-130.55-786.47z" enable-background="new" opacity=".1"></path><path fill="#7a1752" d="M1187.16 1806.6c0 25.92-92.35-99.4-53.22-134.62 39.13-35.22 53.22 107.23 53.22 134.62zM1698.88 1468.05c12.6-58.81 55.88 230.67-4.3 194.85-60.17-35.81 0-174.79 4.3-194.85M1116.62 2224.73c-1.01-25.8-4.55-51.43-5.44-77.22-1.03-30.07-.95-60.45-.15-90.53.42-15.6 1.29-31.21 3.15-46.72 1.79-14.96 5.66-29.53 9.66-44.04 7.09-25.7 16.23-54.19 11.11-81.11-3.28-17.26-14.06-31.01-25.21-44.02-11.39-13.28-23.19-26.72-29.3-43.41-7.68-21.01-4.98-42.73-.37-64.11 5.48-25.47 13.4-50.37 18.37-75.96 4.33-22.29 6.9-46.3-.24-68.26-10.35 4.81-20.41 10.9-29.91 17.84-57.38 256.74-54.49 539.57-18.09 608.7 17.5 12.42 40.14 23.94 66.66 34.39.26-8.66.08-17.29-.24-25.55zM1758.93 1448.86c4.37 36.89 11.49 73.37 18.37 109.86 3.59 19.06 7.09 38.14 10.04 57.31 2.9 18.8 6.07 38.06 6.64 57.1 1.88 63.25-19.52 127.04-3.57 189.74 7.98 31.38 24.06 60.03 31.79 91.51 8.01 32.61 9.64 67.34 10.24 100.78 1.01 56.23.33 115.07-21.78 167.75-6.85 16.33-15.6 31.51-25.52 45.92 42.23-18.95 72.27-44.46 83.77-77.46 26.74-76.76 12.47-463.12-109.98-742.51zM1215.84 1871.96s262.44 144.82 472.48-63.73c0-.01-175.69 300.93-472.48 63.73zM1274.28 1719.08s182.97 100.97 329.4-44.43c0 0-122.49 209.8-329.4 44.43zM1317.59 2176.01s208.21 101.18 338.84-137.83c0 0 29.76 149.84-108.04 193.91-137.79 44.09-230.8-56.08-230.8-56.08z" enable-background="new" opacity=".25"></path><path fill="#ffafaa" d="m1428.35 1508.15 49.3-51.76s419.02 177.47 473.25 315.5-105.99 197.19-138.03 172.54c-32.05-24.65-384.52-436.28-384.52-436.28z"></path><path fill="#fff" d="M1743.99 1609.21c5.91-6.4-193.95-108.94-204.01-96.97-10.07 11.97 154.82 150.29 204.01 96.97z" opacity=".2"></path><path fill="#dd8a8a" d="M1508.04 1585.39c20.54 18.08 88.73 69.02 145.84 74.77 0 0-49.71 14.38-82.98-10.27-33.28-24.66-62.86-64.5-62.86-64.5z" opacity=".25"></path><path fill="#dd8a8a" d="M1950.89 1771.89c-20.08-51.1-90.16-107.6-170.47-158.51 2.1 5.48 3.27 11.27 2.96 17.21-.61 11.69-7.73 21.48-18.31 26.28-6.52 2.96-13.88 4.04-20.94 4.83-8.02.9-16.11.96-24.04-.65-5.59-1.13-10.96-3.05-16.45-4.59-5.36-1.5-12.94-3.76-18.28-1.03-4.4 2.25-5.32 8.53-6.73 12.79-1.61 4.89-3.81 9.81-8.11 12.91-9.97 7.2-24.27 6.47-35.83 5-23.34-2.96-46.56-9.52-68.65-18.13 102.69 118.61 228.28 262.17 246.81 276.42 32.05 24.66 192.27-34.5 138.04-172.53z" opacity=".25"></path><path fill="#ffafaa" d="M1470.67 1158.59s-23.53 27.44-59.98 27.44c-36.45 0-59.97-26.44-59.97-26.44l23.19-139.3h77.82l18.94 138.3z"></path><g opacity=".25"><path fill="#dd8a8a" d="M1393.18 1174.93c-.6-8.24-5.86-11.25-12.49-14.75-8.48-4.48-21.25-13.22-18.88-24.49 2.63-12.53 21.27-12.84 30.78-10.49 8.89 2.19 16.97 5.01 26.32 4.53 7.68-.4 15.59-2.02 22.72-4.94 9.15-3.74 16.51-9.82 22.01-17.59l-11.9-86.9h-77.82l-23.19 139.3s15.58 17.51 41.03 24.03c1.07-2.72 1.65-5.62 1.42-8.7z"></path></g><g opacity=".25"><path fill="#dd8a8a" d="M1364.83 1118.76c13.44 4.01 29.19 3.34 42.87 1.09 24.29-3.99 42.38-21.11 51.73-43.3l-7.7-56.26h-77.82l-15.94 95.76c2.25 1.01 4.49 2 6.86 2.71z"></path></g><path fill="#ffafaa" d="M1532.68 880.68s21.49-90.03-2.72-122.92c-78.06-106.02-225.39-60-251.42-2.02-22.21 49.48-1.18 99.37.29 119.99-9.67-1.05-36.93-1.52-22.45 29.5 16.94 36.29 22.91 45.11 31.61 38.73 14.57 70.55 48.19 142.13 124.79 142.13 74.82 0 103.77-68.53 113.95-137.69 8.74 6.48 14.7-2.29 31.68-38.68 17.43-37.34-25.73-29.04-25.73-29.04z"></path><path fill="#dd8a8a" d="M1290.19 816.9c7.22-7.23 10.69-14.84 13.91-24.38 2.29-6.76 5.51-16.61 12.8-19.58 7.78-3.17 14.29 6.26 19.41 10.48 13.68 11.27 29.66 22.29 48.28 20.38 3.97-.41 7.03-1.24 10.56 1.18 5.96 4.09 10.92 9.68 16.64 14.11 11.95 9.26 25.28 15.12 40.22 17.51 19.5 3.12 39.27 2.2 58.92 2.15 9.54-.03 19.1.25 28.58 1.46 3.24-28.31 3.89-64.19-9.56-82.45-78.06-106.02-225.39-60-251.42-2.02-11.91 26.53-11.36 53.13-8.09 75.32 7.43-3.29 14.06-8.46 19.75-14.16z" opacity=".25"></path><path fill="#131e44" d="M1363.13 918.58c0 9.18-7.48 16.66-16.66 16.66-9.26 0-16.74-7.48-16.74-16.66 0-9.26 7.48-16.74 16.74-16.74 1.28 0 2.46.17 3.65.42-1.02 1.19-1.61 2.8-1.61 4.5 0 3.99 3.23 7.31 7.31 7.31 2.29 0 4.33-1.1 5.69-2.72 1.02 2.22 1.62 4.68 1.62 7.23zM1485.3 918.58c0 9.18-7.48 16.66-16.66 16.66-9.26 0-16.74-7.48-16.74-16.66 0-9.26 7.48-16.74 16.74-16.74 1.27 0 2.46.17 3.65.42-1.02 1.19-1.61 2.8-1.61 4.5 0 3.99 3.23 7.31 7.31 7.31 2.29 0 4.33-1.1 5.69-2.72 1.03 2.22 1.62 4.68 1.62 7.23zM1442.73 884.7s49.95-2.51 54.98-7.43c5.03-4.92-10.61-15.3-32.63-9.73-22.02 5.57-28.07 16.99-22.35 17.16zM1369.78 884.7s-49.95-2.51-54.98-7.43c-5.03-4.92 10.61-15.3 32.63-9.73 22.02 5.57 28.07 16.99 22.35 17.16zM1413.74 980.27c-3.64 0-8.4-.75-11.36-4.16-2.87-3.31-3.26-8.05-1.15-14.08 5.67-16.22 4.85-36.08 4.84-36.28a3.488 3.488 0 0 1 3.33-3.64c1.77.02 3.55 1.4 3.64 3.32.04.86.9 21.39-5.22 38.9-.69 1.97-1.63 5.52-.17 7.21 1.86 2.15 7.35 1.91 9.71 1.44 1.88-.38 3.72.86 4.09 2.75.37 1.89-.85 3.72-2.74 4.09-.48.09-2.46.45-4.97.45z"></path><path fill="#131e44" d="M1295.66 773.23s38.33 15.68 57.51-4.52c19.18-20.19 47.56 56.99 96.03 41.85 48.47-15.15 53.99 93.97 94.38 72.77 40.39-21.2 88.26-130.56 24.65-160.21-63.61-29.65-11.71-80.11-95.51-99-97.94-34.33-109.27 53.4-199.65 20.75-56.92-20.57-30.46 91.89-69.84 144.4-39.38 52.51 62.2 113.19 79.37 100.07 17.16-13.15 41.33-97.94 13.06-116.11z"></path><path fill="#f4f2f3" d="M1398.74 713.12s-2.29 60.66 19.37 54.26c21.65-6.4 49.25-12.92 49.25-12.92l-22.59 37.32 45.12-20.76s-15.04 19.33-6.49 30.25c8.55 10.91 63.39.65 63.39.65s-43.85-12.94-40.05-20.95c3.79-8 14.32-34.37 5.15-37.74-9.18-3.37-29.74-1.36-29.74-1.36s-12.65-19.56-19.42-19c-12.18.99-30.42 41.45-42.68 23.88-12.26-17.58-21.31-33.63-21.31-33.63zM1283.65 734.61c20.97-6.18-53.59-15.18-38.56 33.36 12.93 41.76-54.94 55.61-25.87 55.53 29.07-.09 67.74.08 61.54-31.71-6.2-31.79-25.21-48.9 2.89-57.18z" opacity=".1"></path><path fill="#131e44" d="M1264.31 896.9s3.17 20.7 8.2 20.51c5.03-.19-6.89-23.49-8.2-20.51z"></path><path fill="#21032b" d="M1548.95 901.59s-3.17 20.7-8.2 20.51c-5.03-.18 6.89-23.49 8.2-20.51z"></path><path fill="#edb29f" d="M1453.41 1029.4c-.08 15.42-19.05 27.82-42.37 27.7-23.33-.12-42.18-12.72-42.09-28.13.07-15.42 19-11.67 42.32-11.55 23.32.12 42.22-3.44 42.14 11.98z" opacity=".2"></path><path fill="#fff" d="M1450.64 1002.36c-61.91 27.22-71.72-13.84-83.11 4.39-6.95 11.12 18.39 40.05 50.49 40.05 39.02-4.51 43.98-49.44 32.62-44.44z"></path><path fill="#dd8a8a" d="M1500.52 962c1.14 8.4-8.24 16.61-20.94 18.33-12.71 1.73-23.94-3.69-25.08-12.09-1.14-8.4 8.24-16.61 20.94-18.33 12.71-1.72 23.94 3.69 25.08 12.09zM1311.28 958.19c-1.14 8.4 8.24 16.61 20.94 18.33 12.71 1.73 23.93-3.68 25.08-12.09 1.14-8.4-8.24-16.61-20.94-18.33-12.71-1.72-23.94 3.69-25.08 12.09z" opacity=".25"></path><path fill="#fff" d="M1344.73 869.42c-27.57 0-49.95 22.36-49.95 49.95 0 27.59 22.38 49.95 49.95 49.95 27.59 0 49.95-22.36 49.95-49.95 0-27.59-22.36-49.95-49.95-49.95zm0 91.14c-22.75 0-41.19-18.44-41.19-41.19 0-22.75 18.44-41.19 41.19-41.19 22.75 0 41.19 18.44 41.19 41.19 0 22.75-18.44 41.19-41.19 41.19zM1465.17 869.42c-27.57 0-49.95 22.36-49.95 49.95 0 27.59 22.38 49.95 49.95 49.95 27.59 0 49.95-22.36 49.95-49.95 0-27.59-22.36-49.95-49.95-49.95zm0 91.14c-22.75 0-41.19-18.44-41.19-41.19 0-22.75 18.44-41.19 41.19-41.19 22.75 0 41.19 18.44 41.19 41.19 0 22.75-18.44 41.19-41.19 41.19z"></path><path fill="#ffe245" d="M1331.36 1184.07c-11.75-9.55 4.63-54.76 16.3-49.25 11.68 5.51 112.45 2.56 119.3-12.38 6.85-14.94 22.56 33.09 23.83 46.09 1.27 13-106.16 58.81-159.43 15.54z"></path><path fill="#e38427" d="M1472.18 1160.93c-1.69-4.33-7.26-24.12-4.82-26.57 2.43-2.45 6.83 31.72 4.82 26.57zM1456.55 1173.62c-1.98-5.08-8.53-28.33-5.67-31.2 2.86-2.87 8.03 37.25 5.67 31.2zM1348.11 1178.78c1.15-4.5 4.25-24.83 1.53-26.96s-2.89 32.31-1.53 26.96zM1388.3 1184.17c1.35-5.29 4.99-29.16 1.8-31.66-3.2-2.5-3.4 37.95-1.8 31.66zM1368.76 1184.17c1.35-5.29 4.99-29.16 1.8-31.66-3.19-2.5-3.4 37.95-1.8 31.66zM1434.56 1182.47c-1.48-5.76-5.52-31.74-2.05-34.48 3.48-2.73 3.81 41.33 2.05 34.48zM1413.5 1185.25c-1.48-5.76-5.52-31.74-2.05-34.48s3.82 41.33 2.05 34.48z" opacity=".5"></path><path fill="#e38427" d="M1406.05 1194.08c-2.47-3.61-4.92-10.52-9.57-11.9-5.6-1.66-13.55 2.72-18.79 4.18-6.51 1.81-13.81 2.44-19.6-1.7-6.19-4.43-8.31-12.76-10.1-19.74-1.88-7.36-3.48-15.24-.48-22.52.98-2.36 2.33-4.5 3.8-6.56-1.59-.3-2.85-.63-3.66-1.01-11.68-5.51-28.05 39.7-16.3 49.25 21.67 17.61 52.32 20.46 80.95 16.78-2.34-1.94-4.46-4.17-6.25-6.78z" opacity=".2"></path></g><g><path fill="#fff" d="M686.08 1044.83c-118.76 0-215.38-96.62-215.38-215.39s96.62-215.39 215.38-215.39c118.76 0 215.39 96.62 215.39 215.39s-96.62 215.39-215.39 215.39z"></path><linearGradient id="h" x1="522.559" x2="1050.825" y1="623.174" y2="1289.51" gradientUnits="userSpaceOnUse"><stop offset=".02" stop-color="#d1e1ee"></stop><stop offset=".363" stop-color="#50a7e2"></stop><stop offset="1" stop-color="#182b9b"></stop></linearGradient><circle cx="686.08" cy="829.44" r="198.3" fill="url(#h)"></circle><path fill="#fff" d="M811.7 841.34h-5.14c-.55 0-.8-.57-.85-.75-.58-1.66-1.27-3.31-2.05-4.88-.17-.35-.16-.74.04-.94l3.74-3.74c1.4-1.4 2.17-3.27 2.17-5.25s-.77-3.84-2.17-5.24l-8.08-8.08c-1.36-1.35-3.27-2.13-5.25-2.13s-3.89.77-5.25 2.13l-3.78 3.78c-.31.31-.8.11-.93.05-1.58-.77-3.22-1.46-4.89-2.03-.17-.06-.7-.28-.7-.79v-5.27c0-4.1-3.33-7.42-7.42-7.42h-11.43c-4.09 0-7.42 3.33-7.42 7.42v5.27c0 .51-.54.73-.7.79-1.66.57-3.3 1.25-4.89 2.03-.14.07-.62.27-.93-.05l-3.78-3.78c-1.36-1.36-3.27-2.13-5.25-2.13h-.01c-1.98 0-3.89.78-5.24 2.13l-8.09 8.08c-2.88 2.89-2.88 7.59.01 10.49l3.74 3.73c.17.17.23.55.04.94-.78 1.58-1.47 3.22-2.05 4.89-.06.17-.3.75-.85.75h-5.15c-4.09 0-7.42 3.33-7.42 7.42v11.43c0 4.09 3.33 7.42 7.42 7.42h5.06c.36 0 .66.2.76.48.62 1.86 1.38 3.7 2.26 5.46.11.22.04.52-.17.73l-3.64 3.64c-2.88 2.89-2.88 7.59.01 10.48l8.08 8.08c1.36 1.36 3.27 2.14 5.25 2.14s3.89-.78 5.25-2.14l3.59-3.59c.21-.22.51-.29.73-.17 1.75.88 3.59 1.65 5.45 2.28.32.11.52.44.52.82v4.93c0 4.09 3.33 7.42 7.42 7.42h11.43c4.09 0 7.42-3.33 7.42-7.42v-4.93c0-.38.21-.71.52-.82 1.86-.62 3.7-1.39 5.45-2.28.22-.11.52-.05.73.17l3.6 3.59c1.35 1.36 3.26 2.14 5.24 2.14 1.98 0 3.9-.78 5.25-2.14l8.08-8.08c1.4-1.4 2.17-3.27 2.17-5.25s-.77-3.85-2.17-5.24l-3.64-3.64c-.21-.21-.28-.51-.17-.73a43.51 43.51 0 0 0 2.26-5.45c.09-.29.4-.48.76-.48h5.06c4.09 0 7.42-3.33 7.42-7.42v-11.43c0-4.09-3.33-7.42-7.42-7.42zm-46.28 33.9c-11.45 0-20.76-9.32-20.76-20.76 0-11.45 9.32-20.77 20.76-20.77 11.45 0 20.77 9.32 20.77 20.77s-9.32 20.76-20.77 20.76z"></path><path fill="#fff" d="M709.43 801.13h-7.49c-.8 0-1.15-.83-1.24-1.09-.84-2.42-1.85-4.81-2.98-7.1-.25-.5-.23-1.08.05-1.36l5.45-5.44c2.03-2.04 3.16-4.76 3.16-7.64 0-2.89-1.12-5.6-3.16-7.64l-11.76-11.76c-1.97-1.97-4.75-3.11-7.64-3.11-2.88 0-5.67 1.13-7.64 3.11l-5.51 5.5c-.45.46-1.16.17-1.36.06a63.309 63.309 0 0 0-7.11-2.95c-.24-.08-1.03-.41-1.03-1.15v-7.68c0-5.95-4.85-10.8-10.8-10.8h-16.64c-5.95 0-10.8 4.85-10.8 10.8v7.68c0 .74-.78 1.07-1.03 1.15-2.41.83-4.8 1.82-7.1 2.95-.21.1-.91.4-1.36-.06l-5.5-5.51c-1.98-1.98-4.76-3.11-7.64-3.11h-.01c-2.88 0-5.66 1.13-7.64 3.11l-11.77 11.77c-4.19 4.2-4.19 11.05.01 15.27l5.44 5.44c.25.25.35.8.07 1.36a60.007 60.007 0 0 0-2.99 7.11c-.09.26-.44 1.09-1.24 1.09h-7.49c-5.96 0-10.8 4.85-10.8 10.8v16.63c0 5.96 4.84 10.8 10.8 10.8h7.37c.52 0 .96.28 1.1.7.9 2.71 2.01 5.38 3.29 7.94.16.33.06.76-.25 1.07l-5.3 5.3c-4.19 4.21-4.19 11.05.01 15.27l11.76 11.76c1.98 1.98 4.76 3.11 7.64 3.11h.01c2.88 0 5.66-1.14 7.63-3.11l5.23-5.23c.32-.32.74-.41 1.07-.25 2.55 1.28 5.22 2.4 7.93 3.32.46.15.76.63.76 1.19v7.18c0 5.95 4.85 10.8 10.8 10.8h16.64c5.95 0 10.8-4.85 10.8-10.8v-7.18c0-.56.3-1.04.76-1.19 2.71-.92 5.38-2.04 7.94-3.32.33-.17.76-.07 1.07.25l5.23 5.22c1.97 1.98 4.75 3.12 7.63 3.12h.01c2.88 0 5.67-1.13 7.64-3.11l11.76-11.76c2.04-2.04 3.16-4.75 3.16-7.64 0-2.89-1.12-5.6-3.16-7.64l-5.3-5.3c-.31-.31-.41-.73-.24-1.07 1.28-2.58 2.38-5.25 3.28-7.94.14-.41.58-.69 1.11-.69h7.36c5.96 0 10.8-4.85 10.8-10.8v-16.63c0-5.95-4.84-10.8-10.79-10.8zm-67.37 49.34c-16.66 0-30.23-13.56-30.23-30.22 0-16.67 13.56-30.23 30.23-30.23s30.23 13.55 30.23 30.23c0 16.66-13.56 30.22-30.23 30.22z"></path><path fill="#132368" d="M884.41 829.44c0 109.56-88.84 198.31-198.31 198.31-60.63 0-114.95-27.2-151.24-70.15 1.35.08 2.78.08 4.13.08 152.08 0 275.36-123.28 275.36-275.36 0-1.35 0-2.78-.08-4.13 42.94 36.3 70.14 90.62 70.14 151.25z" opacity=".1"></path></g><linearGradient id="i" x1="1443.299" x2="1400.227" y1="1229.278" y2="1680.19" gradientTransform="rotate(-3.97 1500.36 1456.36)" gradientUnits="userSpaceOnUse"><stop offset=".02" stop-color="#d1e1ee"></stop><stop offset=".363" stop-color="#50a7e2"></stop><stop offset="1" stop-color="#182b9b"></stop></linearGradient><path fill="url(#i)" d="M1367.41 1600.15c-27.39-11.46-40.31-42.96-28.84-70.36l68.51-163.72c6.47-15.46 24.24-22.74 39.7-16.27l43.23 18.09c15.46 6.47 22.74 24.24 16.27 39.7l-68.51 163.72c-11.47 27.39-42.97 40.3-70.36 28.84z"></path><path fill="#132368" d="m1490 1367.89-43.23-18.09c-4.77-2-9.75-2.54-14.56-2.08 4.03 4.5 7.88 9.32 10.58 14.68 2.36 4.68 3.91 11.25-1.1 14.84-5.73 4.12-13.08-1.9-17.68-5.23-3.26-2.36-6.4-4.87-9.6-7.31-1.27-.97-2.54-1.93-3.85-2.83-.29-.2-.6-.38-.9-.57-.97 1.5-1.87 3.06-2.59 4.77L1340.14 1526c5.39 1.26 10.69 2.92 15.75 5.23 21.02 9.58 37.42 27.46 45.58 49.03 2.49 6.59 4.51 13.49 5.73 20.51 13.31-5.05 24.62-15.3 30.55-29.47l68.51-163.72c6.48-15.45-.81-33.22-16.26-39.69z" opacity=".2"></path><path fill="#d1e1ee" d="m1484.32 1368.16-32.18-13.46 77.41-184.99 26.19-17.41 5.99 30.88z"></path><path fill="#132368" d="m1561.7 1183.17-77.38 185.01-32.17-13.47 7.16-17.08c9.92 3.79 19.54 1.74 27.78-10.4 23.45-34.81 48.94-124.1 60.97-169.8l7.7-5.11 5.94 30.85z" opacity=".1"></path><path fill="#132368" d="m1497.12 1374.95-56.97-23.84c-5.09-2.13-7.49-7.98-5.36-13.07s7.98-7.49 13.07-5.36l56.97 23.84c5.09 2.13 7.49 7.98 5.36 13.07s-7.98 7.49-13.07 5.36z"></path><path fill="#ffafaa" d="M1325.15 1446.1c-4.16 9.7 10.92 20.32 10.92 20.32s-8.44.84-13.18 12.47c-3.26 7.91 3.41 16.24 12.21 24.02 14.79 13.22 71.01 49.5 111.77 44.6 55.05-6.66 71.33-72.37 64.42-76.15-20.9-11.44-11.03-115.6-11.03-115.6s-2.18-15.02-17.73-9.53c-20.39 7.22-10.52 73.32-15.38 66.67-13.94-19.08-84.17-42.91-101.58-33.63-11.6 6.18-5.31 19.07-5.31 19.07s-16.28 3.29-19.95 11.61c-5.47 12.08 4.42 22.33 4.42 22.33s-14.35 1.41-19.58 13.82z"></path><path fill="#fff" d="M1496.87 1351.77c-5.99-1.49-10.25 2.3-12.32 9.83-2.05 7.42.68 13.88.68 13.88s6.74.45 13.16-.37c-.07-8.91-1.39-20.28-1.52-23.34z" opacity=".5"></path><path fill="#fc7981" d="M1340.29 1409.93s9.67-6.11 21.84-2.43c.34-3.49.3-8.28-1.89-9.18 0 0-16.28 3.29-19.95 11.61zM1327.37 1442.13c5.79-8.95 17.32-9.84 17.32-9.84l-.03 8.53c0-.01-12.72-.03-17.29 1.31zM1325.38 1474.13c2.73-5.85 10.75-7.74 10.75-7.74l.48 6.23s-6.91 1.04-11.23 1.51z" opacity=".25"></path></g><g><path fill="#d1e1ee" d="M1933.47 1273.08h22.16v337.88h-22.16zM2341.51 1273.08h22.16v337.88h-22.16z"></path><linearGradient id="j" x1="2144.083" x2="2168.727" y1="2238.918" y2="2808.202" gradientUnits="userSpaceOnUse"><stop offset=".02" stop-color="#d1e1ee"></stop><stop offset=".582" stop-color="#50a7e2"></stop><stop offset="1" stop-color="#182b9b"></stop></linearGradient><path fill="url(#j)" d="M2491.65 2424.67h-675.7c-12.94 0-23.42 10.49-23.42 23.42v30.66c0 12.94 10.49 23.42 23.42 23.42h675.7c12.94 0 23.42-10.49 23.42-23.42v-30.66c0-12.93-10.49-23.42-23.42-23.42z"></path><g opacity=".1"><path fill="#132368" d="M2422.91 2463.05c-46.22 10.65-93.55 15.44-140.79 18.72-62.88 4.37-125.98 3.42-188.95 2.23-25.91-.49-51.79-1.25-77.69-.56-20.2.54-41.2.8-60.75-5.08-8.58-2.58-16.86-6.65-23.23-13.05-5.39-5.42-7.78-12.5-9.36-19.82-1.49-6.91-2.05-14.36-5.12-20.82h-101.06c-12.94 0-23.42 10.49-23.42 23.42v30.66c0 12.94 10.49 23.42 23.42 23.42h675.7c12.94 0 23.42-10.49 23.42-23.42v-30.66c0-5.66-2.09-10.79-5.44-14.84-27.35 13.78-57.21 23-86.73 29.8z"></path></g><g opacity=".1"><path fill="#132368" d="M1887.03 2500.69c.48-18.92 1.79-38.26-1.82-56.97-1.28-6.62-3.37-13.37-7.13-19.05h-62.13c-12.94 0-23.42 10.49-23.42 23.42v30.66c0 12.94 10.49 23.42 23.42 23.42h71.04c.02-.49.03-.99.04-1.48z"></path></g><path fill="#d1e1ee" d="M2138.3 1580.14v833.41h-306.13c-12.43 0-22.51-9.32-22.51-20.82v-791.76c0-11.5 10.08-20.82 22.51-20.82h306.13z"></path><path fill="#132368" d="M2120.16 1580.14c-3.42 81.03-19.26 162.21-53 237.31-33.91 75.48-86.03 143.1-152.94 196.59-33.17 26.52-68.68 50.91-104.57 74.32v304.37c0 11.5 10.08 20.82 22.52 20.82h306.13v-833.41h-18.14z" opacity=".05"></path><path fill="#132368" d="M1809.65 2197.96h153.18v161.15h-153.18z" opacity=".2"></path><linearGradient id="k" x1="1906.448" x2="1906.448" y1="1409.715" y2="2621.54" gradientUnits="userSpaceOnUse"><stop offset=".02" stop-color="#d1e1ee"></stop><stop offset=".582" stop-color="#50a7e2"></stop><stop offset="1" stop-color="#182b9b"></stop></linearGradient><path fill="url(#k)" d="M1850.03 1617.49h112.83v407.11h-112.83z"></path><path fill="#132368" d="M2042.67 1618.11h85.81v38.65h-85.81zM2042.67 1685.36h85.81v38.65h-85.81zM2042.67 1752.62h85.81v38.65h-85.81zM2042.67 2123.39h85.81v38.65h-85.81zM2042.67 2190.65h85.81v38.65h-85.81zM2042.67 2257.9h85.81v38.65h-85.81zM2042.67 2325.16h85.81v38.65h-85.81z" opacity=".2"></path><path fill="#d1e1ee" d="M1863.96 1645.19h84.97v7.73h-84.97zM1863.96 1698.66h84.97v7.73h-84.97zM1863.96 1752.12h84.97v7.73h-84.97zM1863.96 1805.58h84.97v7.73h-84.97zM1863.96 1859.05h84.97v7.73h-84.97zM1863.96 1912.51h84.97v7.73h-84.97zM1863.96 1965.98h84.97v7.73h-84.97zM2162.72 1580.14v833.41h312c12.67 0 22.95-9.32 22.95-20.82v-791.76c0-11.5-10.27-20.82-22.95-20.82h-312z"></path><path fill="#132368" d="M2497.66 1600.95v791.8c0 11.48-10.28 20.81-22.93 20.81h-311.99v-123.9c258.5-206.11 295.68-542.9 296.9-709.53h15.08c12.66.01 22.94 9.35 22.94 20.82z" opacity=".05"></path><linearGradient id="l" x1="2399.008" x2="2399.008" y1="1409.715" y2="2621.54" gradientUnits="userSpaceOnUse"><stop offset=".02" stop-color="#d1e1ee"></stop><stop offset=".582" stop-color="#50a7e2"></stop><stop offset="1" stop-color="#182b9b"></stop></linearGradient><path fill="url(#l)" d="M2341.51 1617.49h114.99v407.11h-114.99z"></path><path fill="#132368" d="M2172.73 1618.11h87.45v38.65h-87.45zM2172.73 1685.36h87.45v38.65h-87.45zM2172.73 1752.62h87.45v38.65h-87.45zM2172.73 2123.39h87.45v38.65h-87.45zM2172.73 2190.65h87.45v38.65h-87.45zM2172.73 2257.9h87.45v38.65h-87.45zM2172.73 2325.16h87.45v38.65h-87.45z" opacity=".2"></path><path fill="#d1e1ee" d="M2355.71 1645.19h86.6v7.73h-86.6zM2355.71 1698.66h86.6v7.73h-86.6zM2355.71 1752.12h86.6v7.73h-86.6zM2355.71 1805.58h86.6v7.73h-86.6zM2355.71 1859.05h86.6v7.73h-86.6zM2355.71 1912.51h86.6v7.73h-86.6zM2355.71 1965.98h86.6v7.73h-86.6z"></path><path fill="#132368" d="M2497.61 2075.86H2325.6c-12.75 0-23.08 10.33-23.08 23.08v241.87c0 12.75 10.33 23.08 23.08 23.08h172.01v-288.03z" opacity=".2"></path><linearGradient id="m" x1="2235.6" x2="2845.885" y1="1978.187" y2="2659.549" gradientUnits="userSpaceOnUse"><stop offset=".02" stop-color="#d1e1ee"></stop><stop offset=".363" stop-color="#50a7e2"></stop><stop offset="1" stop-color="#182b9b"></stop></linearGradient><path fill="url(#m)" d="M2525.62 2049.49h-186.89c-12.06 0-21.83 9.77-21.83 21.83v252.66c0 12.06 9.77 21.83 21.83 21.83h186.89c12.06 0 21.83-9.78 21.83-21.83v-252.66c0-12.05-9.77-21.83-21.83-21.83z"></path><path fill="#d1e1ee" d="M2357.4 2084.11h17.58c4.23 0 7.99.84 11.26 2.53 3.27 1.68 5.82 4.04 7.64 7.06 1.82 3.02 2.74 6.47 2.74 10.35 0 4.08-.9 7.67-2.68 10.76-1.78 3.1-4.32 5.5-7.58 7.2-3.28 1.71-7.07 2.56-11.38 2.56h-17.58v-40.46zm16.99 29.87c2.94 0 5.18-.93 6.73-2.79 1.55-1.86 2.32-4.28 2.32-7.26 0-2.82-.76-5.07-2.26-6.73-1.51-1.67-3.77-2.5-6.79-2.5h-4v19.29h4zM2409.26 2084.11h17.88l11.7 40.46h-13.82l-1.53-7.76h-10.47l-1.71 7.76h-13.23l11.18-40.46zm12.82 25.46-3.82-17.7-4 17.7h7.82zM2446.08 2093.05h-8.41v-8.94h30.52v8.94h-8.41v31.52h-13.7v-31.52zM2478.36 2084.11h17.88l11.7 40.46h-13.82l-1.53-7.76h-10.47l-1.71 7.76h-13.23l11.18-40.46zm12.82 25.46-3.82-17.7-4 17.7h7.82zM2501.3 2142.22h-138.26a9.27 9.27 0 0 0-9.27 9.27v30.45a9.27 9.27 0 0 0 9.27 9.27h138.26a9.27 9.27 0 0 0 9.27-9.27v-30.45c.01-5.12-4.14-9.27-9.27-9.27zm-36.37 25.77h-7.95v-7.95h7.95v7.95zm21.2 3.97a7.95 7.95 0 1 1 .002-15.902 7.95 7.95 0 0 1-.002 15.902zM2501.3 2203.12h-138.26a9.27 9.27 0 0 0-9.27 9.27v30.45a9.27 9.27 0 0 0 9.27 9.27h138.26a9.27 9.27 0 0 0 9.27-9.27v-30.45c.01-5.12-4.14-9.27-9.27-9.27zm-36.37 28.83h-7.95V2224h7.95v7.95zm21.2 3.97a7.95 7.95 0 1 1 .002-15.902 7.95 7.95 0 0 1-.002 15.902zM2501.3 2264.01h-138.26a9.27 9.27 0 0 0-9.27 9.27v30.45a9.27 9.27 0 0 0 9.27 9.27h138.26a9.27 9.27 0 0 0 9.27-9.27v-30.45c.01-5.11-4.14-9.27-9.27-9.27zm-36.37 31.9h-7.95v-7.95h7.95v7.95zm21.2 3.98a7.95 7.95 0 1 1 .002-15.902 7.95 7.95 0 0 1-.002 15.902z"></path><linearGradient id="n" x1="1898.699" x2="2834.183" y1="1216.79" y2="2071.034" gradientUnits="userSpaceOnUse"><stop offset=".02" stop-color="#d1e1ee"></stop><stop offset=".582" stop-color="#50a7e2"></stop><stop offset="1" stop-color="#182b9b"></stop></linearGradient><path fill="url(#n)" d="M2477.84 1350.04h-648.07c-12.41 0-22.46 10.06-22.46 22.46v154.48c0 12.41 10.06 22.46 22.46 22.46h648.07c12.41 0 22.46-10.06 22.46-22.46V1372.5c0-12.41-10.06-22.46-22.46-22.46z"></path><path fill="#132368" d="M2500.29 1372.51v154.46c0 12.38-10.03 22.47-22.47 22.47h-648.06c-12.38 0-22.47-10.09-22.47-22.47v-154.46c0-12.45 10.09-22.47 22.47-22.47h27.52c-43.42 306.71 531.55 70.94 643.01 22.47z" opacity=".1"></path><path fill="#d1e1ee" d="M1991.27 1485.66c-15.6 0-27.72-7.45-28.52-22.46h20.77c.4 5.27 3.48 7.05 7.05 7.05 3.48 0 6.16-1.79 6.16-5.07-.1-11.23-34.08-5.96-33.78-30.3 0-13.71 11.43-21.06 26.23-21.06 16.09 0 26.63 7.85 27.32 21.76h-21.16c-.2-4.37-2.88-6.36-6.46-6.36-2.88-.1-5.17 1.59-5.17 4.97 0 10.43 33.68 7.05 33.68 29.51.01 12.32-9.53 21.96-26.12 21.96zM2071.25 1430.51h-25.34v11.42h22.35v14.8h-22.35v12.62h25.34v15.6h-44.81v-70.04h44.81v15.6zM2111.59 1414.92c17.39 0 26.13 9.94 26.13 22.45 0 9.14-4.97 17.09-15.4 20.27l15.8 27.32h-21.76l-13.91-25.83h-2.09v25.83h-19.47v-70.04h30.7zm-1.59 16.29h-9.64v14.6h9.64c5.27 0 7.95-2.58 7.95-7.35 0-4.37-2.69-7.25-7.95-7.25zM2193.95 1414.92h20.77l-24.14 70.04h-24.94l-24.24-70.04h20.86l15.89 50.57 15.8-50.57zM2265.59 1430.51h-25.34v11.42h22.36v14.8h-22.36v12.62h25.34v15.6h-44.81v-70.04h44.81v15.6zM2305.93 1414.92c17.39 0 26.13 9.94 26.13 22.45 0 9.14-4.97 17.09-15.4 20.27l15.8 27.32h-21.76l-13.91-25.83h-2.09v25.83h-19.47v-70.04h30.7zm-1.59 16.29h-9.64v14.6h9.64c5.27 0 7.95-2.58 7.95-7.35 0-4.37-2.68-7.25-7.95-7.25z"></path><linearGradient id="o" x1="1846.998" x2="2202.143" y1="1158.553" y2="1482.856" gradientUnits="userSpaceOnUse"><stop offset=".02" stop-color="#d1e1ee"></stop><stop offset=".582" stop-color="#50a7e2"></stop><stop offset="1" stop-color="#182b9b"></stop></linearGradient><path fill="url(#o)" d="M2042.98 1206.51c-.27 0-.54.04-.81.04-4.07-41.25-38.85-73.48-81.17-73.48-29.76 0-55.78 15.94-70.03 39.74-23.46.52-43.65 14.09-53.65 33.77-23.49.76-42.32 19.99-42.32 43.67 0 24.16 19.58 43.74 43.74 43.74h204.25c24.16 0 43.74-19.58 43.74-43.74-.01-24.16-19.59-43.74-43.75-43.74z"></path><path fill="#132368" d="M2086.49 1250.27c0 24.13-19.64 43.7-43.77 43.7h-204.24c-22.54 0-41.14-17.08-43.49-39 125.01 31.39 201.48-1.66 247.87-48.47 24.07.07 43.63 19.64 43.63 43.77z" opacity=".1"></path><linearGradient id="p" x1="2250.734" x2="2605.878" y1="1158.553" y2="1482.856" gradientUnits="userSpaceOnUse"><stop offset=".02" stop-color="#d1e1ee"></stop><stop offset=".582" stop-color="#50a7e2"></stop><stop offset="1" stop-color="#182b9b"></stop></linearGradient><path fill="url(#p)" d="M2446.71 1206.51c-.27 0-.54.04-.81.04-4.06-41.25-38.85-73.48-81.17-73.48-29.76 0-55.78 15.94-70.03 39.74-23.46.52-43.65 14.09-53.65 33.77-23.49.76-42.32 19.99-42.32 43.67 0 24.16 19.58 43.74 43.74 43.74h204.25c24.16 0 43.74-19.58 43.74-43.74-.01-24.16-19.59-43.74-43.75-43.74z"></path><path fill="#132368" d="M2490.47 1250.27c0 24.13-19.64 43.7-43.77 43.7h-204.24c-22.54 0-41.14-17.08-43.49-39 125.01 31.39 201.48-1.66 247.87-48.47 24.07.07 43.63 19.64 43.63 43.77z" opacity=".1"></path><path fill="#fff" d="m1965.55 1203.71-16-18.29a4.526 4.526 0 0 0-6.69-.14l-17.43 18.29c-2.75 2.89-.7 7.66 3.28 7.66 2.5 0 4.53 2.03 4.53 4.53v26.63c0 2.5 2.03 4.53 4.53 4.53h14.71c2.5 0 4.53-2.03 4.53-4.53v-26.63c0-2.5 2.03-4.53 4.53-4.53h.59c3.9 0 5.98-4.59 3.42-7.52zM2337.65 1227.09l16 18.29a4.526 4.526 0 0 0 6.69.14l17.43-18.29c2.75-2.89.71-7.66-3.28-7.66-2.5 0-4.53-2.03-4.53-4.53v-26.63c0-2.5-2.03-4.53-4.53-4.53h-14.71c-2.5 0-4.53 2.03-4.53 4.53v26.63c0 2.5-2.03 4.53-4.53 4.53h-.59c-3.91 0-5.99 4.59-3.42 7.52z"></path><linearGradient id="q" x1="1487.305" x2="1373.924" y1="2264.542" y2="2533.207" gradientUnits="userSpaceOnUse"><stop offset=".02" stop-color="#d1e1ee"></stop><stop offset=".582" stop-color="#50a7e2"></stop><stop offset="1" stop-color="#182b9b"></stop></linearGradient><path fill="url(#q)" d="M1612.26 2444.43c.79-4.3.78-38.31.78-38.31l-386.77.98 2.4 38.11 383.59-.78z"></path><path fill="#131e44" d="M1632.88 2502.17c19.37-6.48 33.35-24.73 33.35-46.27v-27.79l-642.96-.05-.01 74.12h609.62z"></path><path fill="#fff" d="M1637.1 2464.38c20.2-20.14-213.55-25.52-224.49-2.97-10.93 22.55 194.98 32.39 224.49 2.97z" opacity=".2"></path><linearGradient id="r" x1="487.493" x2="1559.693" y1="1804.505" y2="2972.831" gradientTransform="translate(-.823 .702)" gradientUnits="userSpaceOnUse"><stop offset=".02" stop-color="#d1e1ee"></stop><stop offset=".363" stop-color="#50a7e2"></stop><stop offset="1" stop-color="#182b9b"></stop></linearGradient><path fill="url(#r)" d="M1268.17 2502.17c14.82-4.43 24.4-18.56 22.44-35.32l-53.92-461.06c-2.38-20.32-20.78-36.8-41.1-36.8l-685.59-.06c-20.32 0-34.87 16.47-32.49 36.8l53.92 461.06c1.99 17 15.23 31.16 31.38 35.39h705.36z"></path><path fill="#fff" d="M738.05 2002.37c2.59-5.16-160.53-13.65-167.21 1.03-6.68 14.68 155.39 22.53 167.21-1.03zM1131.82 2007.04c19.31-25.09-141.55-29.1-138.69 1.13 2.85 30.23 126.39 14.85 138.69-1.13z" opacity=".3"></path><ellipse cx="869.22" cy="2148.4" fill="#d1e1ee" rx="49.57" ry="55.56" transform="rotate(-44.506 869.154 2148.3)"></ellipse><path fill="#132368" d="M1268.25 2502.17c14.78-4.46 24.29-18.57 22.35-35.31l-43.16-369.66c-73.6 83.03-163.73 149.74-260.38 203.94-114.96 64.38-239.27 114.93-365.03 153.73-28.76 8.87-57.66 17.05-86.84 24.46 5.27 11.13 15.52 19.66 27.37 22.84h705.69z" opacity=".1"></path></g><path fill="#fff" d="M2152.74 1193.88c0 .09-.09.09-.09.09-.08 0-.08 0-.17-.09-282.87-147.73-267.72-512.47-267.72-512.47 165.52-20.51 261.85-118.88 267.72-125.01 0-.09 0-.09.17-.17.09.09.09.09.09.17 5.87 6.13 102.12 104.5 267.64 125.01-.01 0 15.23 364.74-267.64 512.47z"></path><linearGradient id="s" x1="2008.054" x2="2411.888" y1="484.941" y2="1285.084" gradientUnits="userSpaceOnUse"><stop offset=".02" stop-color="#d1e1ee"></stop><stop offset=".363" stop-color="#50a7e2"></stop><stop offset="1" stop-color="#182b9b"></stop></linearGradient><path fill="url(#s)" d="M2152.61 1174.65c-231.45-126.91-249.83-411.73-250.89-478.41 132.94-20.48 219.55-88.02 250.89-116.37 31.33 28.36 117.93 95.9 250.8 116.37-1.03 66.66-19.34 351.5-250.8 478.41z"></path><path fill="#fff" d="M1928.63 722.01c-17.79 34.1-.62 106.32 14.29 89.06 14.9-17.26-4.88-107.11-14.29-89.06zM1943.28 713.66c21.56 10.21 59.58-8.15 48.53-16.97-11.06-8.83-59.94 11.56-48.53 16.97z" opacity=".3"></path><path fill="#fff" d="M2107.28 814.35v-35.32c0-23.13 18.81-41.94 41.94-41.94s41.95 18.81 41.95 41.94v35.32h28.03v-35.32c0-38.58-31.39-69.97-69.97-69.97s-69.97 31.39-69.97 69.97v35.32h28.02z"></path><linearGradient id="t" x1="2065.352" x2="2317.708" y1="754.559" y2="1106.717" gradientUnits="userSpaceOnUse"><stop offset=".02" stop-color="#d1e1ee"></stop><stop offset=".582" stop-color="#50a7e2"></stop><stop offset="1" stop-color="#182b9b"></stop></linearGradient><path fill="url(#t)" d="M2231.97 795.4h-53.56c-.4 0-.7-.1-1.01-.2h-109.43c-8.96 0-16.21 7.25-16.21 16.21v119.5c0 8.86 7.25 16.21 16.21 16.21h161.88c8.96 0 16.21-7.35 16.21-16.21v-119.5c0-8.16-6.14-15-14.09-16.01zm-68.46 106.41h-29.09s4.83-23.56 7.85-36.34a14.741 14.741 0 0 1-8.26-13.29c0-8.26 6.64-14.9 14.9-14.9s15 6.64 15 14.9c0 5.84-3.42 10.87-8.36 13.29 3.03 12.79 7.96 36.34 7.96 36.34z"></path><path fill="#132368" d="M2262.65 652.56c-3.02 12.89-6.46 25.7-10.79 38.29-20.01 58.24-54.75 110.49-100.96 151.22-43.01 37.91-93.44 67.73-145.72 90.92-15.98 7.09-32.31 13.52-48.87 19.36 36.25 83.36 96.4 167.54 196.28 222.31 231.46-126.92 249.77-411.75 250.8-478.41-55.13-8.5-102.17-25.14-140.74-43.69z" opacity=".2"></path></svg>